<svg xmlns="http://www.w3.org/2000/svg" xmlns:xlink="http://www.w3.org/1999/xlink" viewBox="0 0 2821.64 1512.32"><defs><style>.cls-1,.cls-16,.cls-42,.cls-49,.cls-5,.cls-50,.cls-51,.cls-52,.cls-53,.cls-72,.cls-75,.cls-77,.cls-78{fill:#838bc5;}.cls-1,.cls-15,.cls-2,.cls-28,.cls-42,.cls-43,.cls-44,.cls-54,.cls-66,.cls-74{stroke:#838bc5;}.cls-1,.cls-10,.cls-11,.cls-12,.cls-13,.cls-14,.cls-15,.cls-16,.cls-17,.cls-18,.cls-19,.cls-2,.cls-20,.cls-21,.cls-23,.cls-26,.cls-28,.cls-37,.cls-38,.cls-39,.cls-42,.cls-43,.cls-44,.cls-45,.cls-46,.cls-47,.cls-48,.cls-49,.cls-5,.cls-50,.cls-51,.cls-52,.cls-53,.cls-54,.cls-55,.cls-57,.cls-58,.cls-59,.cls-6,.cls-60,.cls-66,.cls-69,.cls-7,.cls-70,.cls-71,.cls-72,.cls-73,.cls-74,.cls-75,.cls-76,.cls-77,.cls-78,.cls-79,.cls-8,.cls-81,.cls-82,.cls-9{stroke-miterlimit:10;}.cls-1{stroke-width:4.03px;}.cls-15,.cls-2,.cls-28,.cls-43,.cls-54,.cls-66,.cls-74{fill:#fff;}.cls-2{stroke-width:5.08px;}.cls-3,.cls-68{font-size:33px;}.cls-3,.cls-35,.cls-36{font-family:TimesNewRomanPSMT, Times New Roman;}.cls-4{letter-spacing:-0.06em;}.cls-16,.cls-32,.cls-33,.cls-46,.cls-47,.cls-48,.cls-49,.cls-5,.cls-50,.cls-51,.cls-52,.cls-53,.cls-55,.cls-57,.cls-58,.cls-59,.cls-60,.cls-70,.cls-71,.cls-72,.cls-73,.cls-75,.cls-76,.cls-77,.cls-78{stroke:#4a9bff;}.cls-5{stroke-width:1.29px;}.cls-10,.cls-11,.cls-12,.cls-13,.cls-14,.cls-17,.cls-18,.cls-19,.cls-20,.cls-21,.cls-22,.cls-23,.cls-26,.cls-44,.cls-48,.cls-57,.cls-58,.cls-59,.cls-6,.cls-60,.cls-69,.cls-7,.cls-70,.cls-79,.cls-8,.cls-9{fill:none;}.cls-10,.cls-17,.cls-20,.cls-21,.cls-6,.cls-9{stroke:#c69bc2;}.cls-10,.cls-11,.cls-13,.cls-17,.cls-18,.cls-19,.cls-20,.cls-21,.cls-26,.cls-6,.cls-60,.cls-7,.cls-8,.cls-9{stroke-linecap:round;}.cls-6,.cls-7,.cls-8{stroke-width:2.58px;}.cls-18,.cls-7{stroke:#c67061;}.cls-19,.cls-8{stroke:#c69b61;}.cls-9{stroke-width:3.3px;}.cls-10{stroke-width:2.87px;}.cls-11,.cls-12{stroke:#1fb0ff;}.cls-11,.cls-12,.cls-13,.cls-14{stroke-width:1.67px;}.cls-13,.cls-14{stroke:#7fe4ff;}.cls-15,.cls-26{stroke-width:5px;}.cls-16{stroke-width:1.28px;}.cls-17,.cls-18,.cls-19{stroke-width:2.56px;}.cls-20{stroke-width:3.29px;}.cls-21{stroke-width:2.86px;}.cls-23{stroke:#69b5c1;stroke-width:10.26px;}.cls-24{fill:#69b5c1;}.cls-25{letter-spacing:-0.07em;}.cls-26{stroke:#9268c5;}.cls-27{fill:#9268c5;}.cls-28{stroke-width:5.36px;}.cls-29{fill:#70a9f1;}.cls-30{fill:#4a9bff;}.cls-31{fill:#a9c6ce;}.cls-32{fill:#ca9881;}.cls-32,.cls-33{stroke-linejoin:round;stroke-width:1.23px;}.cls-33{fill:#ca98b4;}.cls-34,.cls-35{isolation:isolate;}.cls-35,.cls-36{font-size:22.84px;fill:#00476a;}.cls-36{letter-spacing:0em;}.cls-37,.cls-38,.cls-39,.cls-40,.cls-81,.cls-82{fill:#be8cd4;}.cls-37,.cls-38,.cls-39,.cls-81,.cls-82{stroke:#be8cd4;}.cls-37{stroke-width:17.13px;}.cls-39{stroke-width:18.1px;}.cls-41{font-size:36px;font-family:TimesNewRomanPS-BoldMT, Times New Roman;font-weight:700;}.cls-42{stroke-width:4.23px;}.cls-43{stroke-width:4.04px;}.cls-44{stroke-width:4.07px;}.cls-45{fill:#ed1e79;stroke:#ed1e79;stroke-width:1.22px;}.cls-46,.cls-56,.cls-71,.cls-76{fill:#ba9bc9;}.cls-46{stroke-width:1.59px;}.cls-47{fill:#d4e5ff;}.cls-47,.cls-49{stroke-width:1.44px;}.cls-48{stroke-width:3.83px;}.cls-50{stroke-width:0.62px;}.cls-51{stroke-width:0.49px;}.cls-52{stroke-width:0.5px;}.cls-53{stroke-width:0.52px;}.cls-54{stroke-width:4.06px;}.cls-55{fill:#8ecfff;opacity:0.2;}.cls-55,.cls-57{stroke-width:2.09px;}.cls-58{stroke-width:12.54px;}.cls-59,.cls-60{stroke-width:1.98px;}.cls-61{fill:#91d2e2;}.cls-62{fill:#ffe6b4;}.cls-63{fill:#c3d091;}.cls-64{fill:#aad0ff;}.cls-65{fill:#ebd7cc;}.cls-66{stroke-width:3.91px;}.cls-67,.cls-68{font-family:TimesNewRomanPS-ItalicMT, Times New Roman;font-style:italic;}.cls-68{letter-spacing:0.01em;}.cls-69{stroke:#000;stroke-width:0.5px;}.cls-70,.cls-71,.cls-72,.cls-73{stroke-width:1.7px;}.cls-73{fill:#65c8d0;}.cls-74{stroke-width:3.97px;}.cls-75{stroke-width:0.35px;}.cls-76{stroke-width:1.05px;}.cls-77{stroke-width:0.34px;}.cls-78{stroke-width:0.3px;}.cls-79{stroke:#4a70ff;stroke-width:2.79px;}.cls-80{fill:#4a70ff;}.cls-81{stroke-width:15.63px;}.cls-82{stroke-width:17.03px;}.cls-83{letter-spacing:-0.02em;}.cls-84{letter-spacing:-0.09em;}</style></defs><title>流程图</title><g id="图层_9" data-name="图层 9"><path class="cls-1" d="M84.13,220.05H1460.59A30.38,30.38,0,0,1,1491,250.44v914.31a30.38,30.38,0,0,1-30.38,30.38H83.75a30,30,0,0,1-30-30V250.44a30.38,30.38,0,0,1,30.38-30.38Z"/><g id="图层_1" data-name="图层 1"><path class="cls-2" d="M543.13,284H830.05a30.38,30.38,0,0,1,30.38,30.38V986.24a30.38,30.38,0,0,1-30.38,30.38H542.74a30,30,0,0,1-30-30V314.38A30.38,30.38,0,0,1,543.13,284Z"/><path class="cls-2" d="M926.67,284h180.09a30.38,30.38,0,0,1,30.38,30.38V986.24a30.38,30.38,0,0,1-30.38,30.38H926.29a30,30,0,0,1-30-30V314.38A30.38,30.38,0,0,1,926.67,284Z"/><text class="cls-3" transform="translate(537.36 329.11)">Eliminate key sites</text><text class="cls-3" transform="translate(919.88 329.11)">Calculate<tspan class="cls-4" x="124.6" y="0"> </tspan><tspan x="131.03" y="0">ΔΔG</tspan></text><text class="cls-3" transform="translate(919.88 710.66)">Calculate<tspan class="cls-4" x="124.6" y="0"> </tspan><tspan x="131.03" y="0">ΔΔG</tspan></text><text class="cls-3" transform="translate(919.88 982.51)">Calculate<tspan class="cls-4" x="124.6" y="0"> </tspan><tspan x="131.03" y="0">ΔΔG</tspan></text><path class="cls-5" d="M600.61,417.11s-8.17-15.94,4.9-18.8,31.89,0,31.89,0l7.36,8.77s9,8,14.73,5.13-2.45-11.45,13.08-11.45S693,393.31,692.2,391c-1.09-3.27,21.37-18,31.94-4.9s14.65,20.85,11.4,31.06a107.37,107.37,0,0,0-4.09,21.26s0,6.14,9.81,9,28.21,11.85,29.43,22.89,18,22.49,9,36-13.49,39.25-49.06,37.61S706.1,530.36,702,523.41s-12.55-5.32-11.79-2.45,10.68,4.49,0,10.63-38.9,12.67-43.83-4.91,2.05-31,2.46-40-12.27-5.26-16.36,0-19.21,2.1-25.34,0-23.7-24.59-21.26-31.94,1.63-18,4.09-24.53S600.61,417.11,600.61,417.11Z"/><path class="cls-6" d="M763,386.91c-20,.82-30.53,10.61-30.53,10.61"/><path class="cls-7" d="M778.42,450.57c-3.74,12-12.43,18.22-24.87,21.51"/><path class="cls-8" d="M680.11,554.66c5.32-19.22,5.59-21.21-1.9-33.7"/><path class="cls-8" d="M787.76,537.81c-22.31-7.52-32-16.85-32-16.85"/><path class="cls-7" d="M628.22,481.08c-3.74,12-12.43,18.22-24.87,21.52"/><path class="cls-7" d="M671.66,414.25c0-8.77-15.53-13.67-15.53-27.34"/><path class="cls-9" d="M609.07,422.89c-18.1-8.69-35.15.15-35.15.15"/><path class="cls-10" d="M725.66,517.66c-10.21,11.9,3.86,17.82-10.56,27.7"/><g id="图层_3" data-name="图层 3"><line class="cls-11" x1="732.13" y1="408" x2="768.5" y2="421.41"/><rect class="cls-12" x="764.15" y="406.57" width="13.35" height="17.13" rx="6.01" transform="translate(114.66 994.75) rotate(-69.76)"/><line class="cls-11" x1="739.3" y1="397.84" x2="764.09" y2="427.64"/><rect class="cls-12" x="752.3" y="423.34" width="13.35" height="17.13" rx="6.01" transform="matrix(0.77, -0.64, 0.64, 0.77, -100.7, 585.31)"/><line class="cls-13" x1="724.32" y1="538.41" x2="744.74" y2="505.47"/><rect class="cls-14" x="730.5" y="495.28" width="17.13" height="13.35" rx="6.01" transform="translate(-76.94 865.71) rotate(-58.21)"/><line class="cls-13" x1="715.8" y1="529.36" x2="749.95" y2="511.03"/><rect class="cls-14" x="744.54" y="510.25" width="17.13" height="13.35" rx="6.01" transform="translate(-154.9 417.4) rotate(-28.21)"/><line class="cls-11" x1="598.77" y1="410.32" x2="577.41" y2="377.98"/><rect class="cls-12" x="565.18" y="373.1" width="13.35" height="17.13" rx="6.01" transform="translate(-115.66 378.31) rotate(-33.44)"/><line class="cls-11" x1="586.98" y1="414.27" x2="584.65" y2="375.57"/><rect class="cls-12" x="584.64" y="366.62" width="13.35" height="17.13" rx="6.01" transform="translate(-21.45 36.16) rotate(-3.44)"/></g></g><g id="图层_4" data-name="图层 4"><text class="cls-3" transform="translate(537.36 710.61)">Eliminate key sites</text><text class="cls-3" transform="translate(537.36 982.46)">Eliminate key sites</text><path class="cls-5" d="M600.61,792.62s-8.17-16,4.9-18.81,31.89,0,31.89,0l7.36,8.77s9,8,14.73,5.13-2.45-11.45,13.08-11.45,20.41-7.45,19.63-9.81c-1.09-3.27,21.37-18,31.94-4.9s14.65,20.85,11.4,31.07a107.2,107.2,0,0,0-4.09,21.25s0,6.14,9.81,9,28.21,11.85,29.43,22.89,18,22.49,9,36S766.2,921,730.63,919.35,706.1,905.86,702,898.91s-12.55-5.32-11.79-2.45,10.68,4.49,0,10.63-38.9,12.67-43.83-4.91,2.05-31,2.46-40-12.27-5.26-16.36,0-19.21,2.1-25.34,0-23.7-24.58-21.26-31.94,1.63-18,4.09-24.53S600.61,792.62,600.61,792.62Z"/><path class="cls-6" d="M763,762.41c-20,.82-30.53,10.61-30.53,10.61"/><path class="cls-7" d="M778.42,826.07c-3.74,12-12.43,18.22-24.87,21.51"/><path class="cls-8" d="M680.11,930.16c5.32-19.21,5.59-21.21-1.9-33.7"/><path class="cls-8" d="M787.76,913.31c-22.31-7.52-32-16.85-32-16.85"/><path class="cls-7" d="M628.22,856.58c-3.74,12-12.43,18.22-24.87,21.52"/><path class="cls-7" d="M671.66,789.75c0-8.77-15.53-13.67-15.53-27.34"/><path class="cls-9" d="M609.07,798.39c-18.1-8.69-35.15.15-35.15.15"/><path class="cls-10" d="M725.66,893.16c-10.21,11.9,3.86,17.82-10.56,27.7"/><g id="图层_3-2" data-name="图层 3"><line class="cls-11" x1="732.13" y1="783.5" x2="768.5" y2="796.91"/><rect class="cls-12" x="764.15" y="782.07" width="13.35" height="17.13" rx="6.01" transform="translate(-237.66 1240.34) rotate(-69.76)"/><line class="cls-11" x1="739.3" y1="773.34" x2="764.09" y2="803.14"/><rect class="cls-12" x="752.3" y="798.84" width="13.35" height="17.13" rx="6.01" transform="translate(-340.86 672.15) rotate(-39.76)"/><line class="cls-13" x1="724.32" y1="913.91" x2="744.74" y2="880.97"/><rect class="cls-14" x="730.5" y="870.79" width="17.13" height="13.35" rx="6.01" transform="translate(-396.11 1043.4) rotate(-58.21)"/><line class="cls-13" x1="715.8" y1="904.86" x2="749.95" y2="886.53"/><rect class="cls-14" x="744.54" y="885.75" width="17.13" height="13.35" rx="6.01" transform="translate(-332.4 462) rotate(-28.21)"/><line class="cls-11" x1="598.77" y1="785.82" x2="577.41" y2="753.48"/><rect class="cls-12" x="565.18" y="748.6" width="13.35" height="17.13" rx="6.01" transform="translate(-322.58 440.46) rotate(-33.44)"/><line class="cls-11" x1="586.98" y1="789.77" x2="584.65" y2="751.07"/><rect class="cls-12" x="584.64" y="742.12" width="13.35" height="17.13" rx="6.01" transform="translate(-43.98 36.83) rotate(-3.44)"/></g></g><g id="图层_2" data-name="图层 2"><path class="cls-15" d="M145.9,284H432.82a30.38,30.38,0,0,1,30.38,30.38V565.92a30.38,30.38,0,0,1-30.38,30.38H145.52a30,30,0,0,1-30-30V314.38A30.38,30.38,0,0,1,145.9,284Z"/><text class="cls-3" transform="translate(140.13 329.11)">Select flexible sites</text><path class="cls-16" d="M205.74,415.65s-8.12-15.86,4.88-18.71,31.72,0,31.72,0l7.32,8.73s9,7.94,14.66,5.1-2.44-11.39,13-11.39,20.3-7.41,19.52-9.76c-1.08-3.25,21.26-17.89,31.78-4.87s14.57,20.74,11.34,30.9a107,107,0,0,0-4.07,21.15s0,6.1,9.76,8.95,28.06,11.79,29.28,22.77,17.9,22.37,8.95,35.79-13.42,39-48.8,37.42-24.4-13.42-28.47-20.34-12.49-5.29-11.74-2.44,10.63,4.47,0,10.58-38.69,12.6-43.6-4.88,2-30.8,2.45-39.81-12.21-5.23-16.27,0-19.11,2.09-25.22,0-23.57-24.45-21.15-31.77,1.63-17.9,4.07-24.41S205.74,415.65,205.74,415.65Z"/><path class="cls-17" d="M367.24,385.6c-19.93.82-30.37,10.56-30.37,10.56"/><path class="cls-18" d="M382.63,448.93c-3.72,12-12.37,18.12-24.74,21.4"/><path class="cls-19" d="M284.83,552.48c5.29-19.11,5.56-21.1-1.9-33.53"/><path class="cls-19" d="M391.92,535.72C369.73,528.24,360.11,519,360.11,519"/><path class="cls-18" d="M233.21,479.28c-3.72,12-12.37,18.13-24.74,21.41"/><path class="cls-18" d="M276.42,412.8c0-8.73-15.45-13.6-15.45-27.2"/><path class="cls-20" d="M214.16,421.4c-18-8.65-35,.14-35,.14"/><path class="cls-21" d="M330.14,515.67C320,527.51,334,533.4,319.64,543.23"/><line class="cls-22" x1="374.94" y1="345.28" x2="359.54" y2="379.45"/><line class="cls-23" x1="374.94" y1="345.28" x2="363.97" y2="369.61"/><polygon class="cls-24" points="376.02 373.2 353.3 362.96 359.54 379.44 376.02 373.2"/><line class="cls-22" x1="165.05" y1="378.1" x2="179.19" y2="412.8"/><line class="cls-23" x1="165.05" y1="378.1" x2="175.12" y2="402.81"/><polygon class="cls-24" points="186.03 396.56 162.94 405.96 179.19 412.8 186.03 396.56"/><line class="cls-22" x1="346.24" y1="579.21" x2="327.5" y2="546.76"/><line class="cls-23" x1="346.24" y1="579.21" x2="332.9" y2="556.1"/><polygon class="cls-24" points="322.94 563.78 344.52 551.32 327.5 546.76 322.94 563.78"/></g><g id="图层_6" data-name="图层 6"><path class="cls-15" d="M802.16,1037.45h305.76a30.38,30.38,0,0,1,30.38,30.38v57.82a30.38,30.38,0,0,1-30.38,30.38H801.78a30,30,0,0,1-30-30v-58.21A30.38,30.38,0,0,1,802.16,1037.45Z"/><text class="cls-3" transform="translate(792.49 1089.69)"><tspan class="cls-25">T</tspan><tspan x="17.85" y="0">est the formation of </tspan><tspan x="0" y="39.6">predicted disulfide bonds </tspan></text><path class="cls-26" d="M1126.16,973.85h1.1A24.74,24.74,0,0,1,1152,998.59v77.72a24.75,24.75,0,0,1-11.28,20.77"/><path class="cls-27" d="M1126.16,1101.05c6-4.59,13.13-11.47,16.95-17.62l-.63,12.63,7.6,10.1C1143.46,1103.21,1133.72,1101.49,1126.16,1101.05Z"/></g><g id="图层_7" data-name="图层 7"><path class="cls-15" d="M1220.39,362.44h207.18A30.38,30.38,0,0,1,1458,392.83V946.2a30.38,30.38,0,0,1-30.38,30.38H1220a30,30,0,0,1-30-30V392.83A30.38,30.38,0,0,1,1220.39,362.44Z"/><text class="cls-3" transform="translate(1208.06 675.17)">Screen mutations</text></g><g id="图层_3-3" data-name="图层 3"><path class="cls-28" d="M145.9,659.49H432.82a30.38,30.38,0,0,1,30.38,30.38V988.34a30.38,30.38,0,0,1-30.38,30.38H145.52a30,30,0,0,1-30-30V689.88a30.38,30.38,0,0,1,30.38-30.38Z"/><text class="cls-3" transform="translate(155.13 704.61)">Select Cys with free <tspan x="0" y="39.6">sulfhydryl group</tspan></text><image width="661" height="448" transform="translate(148.35 765.36) scale(0.41)" xlink:href="Cys1.png"/><text class="cls-3" transform="translate(140.13 984.61)">Predict disulfide bonds</text></g><g id="图层_5" data-name="图层 5"><path class="cls-29" d="M975.27,517.88l8.84-104.19a7.13,7.13,0,0,1,7.06-6.52,4.46,4.46,0,0,1,.82.05l124.24,13.9a9.15,9.15,0,0,1,8.07,10.11v.14L1106.67,566Z"/><path class="cls-30" d="M991.17,407.81a3.54,3.54,0,0,1,.73.05l124.24,13.89a8.46,8.46,0,0,1,7.48,9.34v.14L1106.08,565,976,517.38l8.8-103.69a6.47,6.47,0,0,1,6.37-5.88m0-1.36a7.75,7.75,0,0,0-7.74,7.15l-8.89,104.74,132.67,48.57L1125,431.5a9.87,9.87,0,0,0-8.47-11s-.14,0-.18-.05L992,406.49c-.27,0-.59,0-.87,0Z"/><path class="cls-31" d="M980.88,513.78l8.7-98.09a2.67,2.67,0,0,1,2.64-2.41h.32L1110.13,427a5.84,5.84,0,0,1,5.15,6.47v.09L1099.1,557Z"/><path class="cls-30" d="M992.22,413.92h.23L1110,427.58a5.23,5.23,0,0,1,4.6,5.79v.09l-16.08,122.79-117-42.83,8.65-97.59a2.11,2.11,0,0,1,2.05-1.91m0-1.23a3.35,3.35,0,0,0-3.28,3l-8.75,98.5,119.42,43.7,16.31-124.29a6.48,6.48,0,0,0-5.56-7.25h-.14L992.63,412.69Z"/><path class="cls-29" d="M1004.8,610.87a20.61,20.61,0,0,1-9.84-2.5L894,553.88a3.6,3.6,0,0,1,.5-6.56l80-28.25L1105.39,567l-92,42A20.38,20.38,0,0,1,1004.8,610.87Z"/><path class="cls-30" d="M974.54,519.8,1103.61,567l-90.52,41.33a20.21,20.21,0,0,1-17.86-.6L894.36,553.28a2.93,2.93,0,0,1,.41-5.33l79.77-28.15m0-1.46-80.18,28.29a4.31,4.31,0,0,0-.64,7.84L994.64,609a21.41,21.41,0,0,0,19,.64l93.53-42.69L974.54,518.34Z"/><polygon class="cls-32" points="933.86 567.82 971.58 586.91 995.55 576.52 958.05 558.39 933.86 567.82"/><polygon class="cls-33" points="931.86 540.39 1036.19 590.28 1088.08 566.91 974.54 524.22 931.86 540.39"/><g class="cls-34"><text class="cls-35" transform="translate(1230.66 435.39)">ΔΔG</text><text class="cls-36" transform="translate(1276.52 437.99) scale(0.58)">1</text><text class="cls-35" transform="translate(1230.66 462.79)">ΔΔG</text><text class="cls-36" transform="translate(1276.52 465.4) scale(0.58)">2</text><text class="cls-35" transform="translate(1230.66 490.19)">ΔΔG</text><text class="cls-36" transform="translate(1276.52 492.8) scale(0.58)">3</text><text class="cls-35" transform="translate(1230.66 517.6)">ΔΔG</text><text class="cls-36" transform="translate(1276.52 520.2) scale(0.58)">4</text><text class="cls-35" transform="translate(1230.66 545)">...</text></g></g><g id="图层_8" data-name="图层 8"><line class="cls-37" x1="844.44" y1="493.2" x2="889.37" y2="493.2"/><polygon class="cls-38" points="884.4 510.27 913.97 493.2 884.4 476.07 884.4 510.27"/><line class="cls-39" x1="1128.06" y1="493.2" x2="1178.23" y2="493.2"/><polygon class="cls-40" points="1172.68 510.27 1205.7 493.2 1172.68 476.07 1172.68 510.27"/><line class="cls-37" x1="455.08" y1="318.81" x2="500.01" y2="318.81"/><polygon class="cls-40" points="495.04 335.88 524.62 318.81 495.04 301.69 495.04 335.88"/><line class="cls-37" x1="455.08" y1="700.51" x2="500.01" y2="700.51"/><polygon class="cls-40" points="495.04 717.58 524.62 700.51 495.04 683.39 495.04 717.58"/><line class="cls-37" x1="455.08" y1="971" x2="500.01" y2="971"/><polygon class="cls-40" points="495.04 988.07 524.62 971 495.04 953.88 495.04 988.07"/></g><text class="cls-41" transform="translate(82.38 271.06)">Point mutation</text><text class="cls-41" transform="translate(82.38 647.07)">Disulfide bond design</text><text class="cls-41" transform="translate(668.16 1246.32)">Rational Design</text></g><g id="图层_11" data-name="图层 11"><path class="cls-42" d="M1558.81,221.74H2365a30.38,30.38,0,0,1,30.38,30.38v914.31a30.38,30.38,0,0,1-30.38,30.38H1558.42a30,30,0,0,1-30-30V252.13A30.38,30.38,0,0,1,1558.81,221.74Z"/><g id="图层_12" data-name="图层 12"><path class="cls-43" d="M1608,254.84h308.72a30.38,30.38,0,0,1,30.38,30.38V515.44a30.38,30.38,0,0,1-30.38,30.38H1607.63a30,30,0,0,1-30-30V285.22A30.38,30.38,0,0,1,1608,254.84Z"/><circle class="cls-44" cx="1693.19" cy="356.96" r="37.06"/><circle class="cls-45" cx="1714.22" cy="326.44" r="4.38"/><rect class="cls-46" x="1766.97" y="342.41" width="77.56" height="177.82" rx="38.78" transform="translate(293.14 -645.14) rotate(22)"/><rect class="cls-47" x="1772.25" y="347.59" width="66.99" height="167.54" rx="33.5" transform="translate(293.16 -645.14) rotate(22)"/><line class="cls-48" x1="1735.34" y1="383.22" x2="1757.09" y2="397.91"/><polygon class="cls-30" points="1752.5 401.71 1763.91 402.52 1758.9 392.23 1752.5 401.71"/><circle class="cls-49" cx="1834.98" cy="396.22" r="11.6"/><circle class="cls-50" cx="1817.2" cy="407.83" r="7.67"/><rect class="cls-50" x="1783.19" y="474.71" width="6.47" height="30.74" rx="3.24" transform="translate(-58.88 327.8) rotate(-10.31)"/><rect class="cls-51" x="1812" y="367.94" width="5.22" height="23.84" rx="2.61" transform="translate(726.16 -1120.93) rotate(42.23)"/><rect class="cls-52" x="1810.08" y="434.33" width="4.41" height="29.34" rx="2.21" transform="translate(1208.75 -1317.84) rotate(57.23)"/><rect class="cls-50" x="1805.75" y="431.32" width="3.78" height="8.21" rx="1.89" transform="translate(-14.95 803.27) rotate(-24.95)"/><rect class="cls-53" x="1796.67" y="494.64" width="3.78" height="5.73" rx="1.89" transform="translate(317.42 -637.63) rotate(22)"/><rect class="cls-50" x="1829.41" y="363.99" width="3.78" height="8.21" rx="1.89" transform="translate(15.66 806.97) rotate(-24.95)"/><text class="cls-3" transform="translate(1600.56 304.1)">Create mutants</text></g><g id="图层_13" data-name="图层 13"><path class="cls-54" d="M1608,573h308.72a30.38,30.38,0,0,1,30.38,30.38V835.67a30.38,30.38,0,0,1-30.38,30.38H1607.63a30,30,0,0,1-30-30V603.41A30.38,30.38,0,0,1,1608,573Z"/><text class="cls-3" transform="translate(1600.56 622.29)">Express and purify SQR</text><path class="cls-55" d="M1687.85,827.82h-70.4a11.59,11.59,0,0,1-10-17.39L1625,779.94l10.58-18.31a4.28,4.28,0,0,0,.56-2.09V700.86a4.19,4.19,0,0,1,4.18-4.19H1665a4.19,4.19,0,0,1,4.18,4.19v58.67a4.17,4.17,0,0,0,.56,2.09l10.57,18.32,17.61,30.49A11.6,11.6,0,0,1,1687.85,827.82Z"/><path class="cls-56" d="M1697.89,810.43a11.6,11.6,0,0,1-10,17.39h-70.4a11.59,11.59,0,0,1-10-17.39Z"/><path class="cls-57" d="M1687.85,827.82h-70.4a11.59,11.59,0,0,1-10-17.39L1625,779.94l10.57-18.31a4.19,4.19,0,0,0,.57-2.1V700.86a4.19,4.19,0,0,1,4.18-4.19H1665a4.21,4.21,0,0,1,4.2,4.21v58.64a4.18,4.18,0,0,0,.56,2.1l10.57,18.32,17.61,30.49A11.6,11.6,0,0,1,1687.85,827.82Z"/><line class="cls-58" x1="1719.19" y1="762.25" x2="1756.3" y2="762.25"/><polygon class="cls-30" points="1753.01 773.5 1772.5 762.25 1753.01 750.99 1753.01 773.5"/><path class="cls-59" d="M1868.58,773.87V837.3c0,4-3.53,7.2-7.88,7.2s-7.88-3.22-7.88-7.2V773.87Z"/><path class="cls-59" d="M1894.18,773.87V837.3c0,4-3.53,7.2-7.88,7.2s-7.88-3.22-7.88-7.2V773.87Z"/><path class="cls-59" d="M1919.77,773.87V837.3c0,4-3.52,7.2-7.88,7.2s-7.87-3.22-7.87-7.2V773.87Z"/><path class="cls-56" d="M1832.54,760.75v-7.58a1.49,1.49,0,0,0-.88-1.33l-4-1.9-5.84-2.8a1.8,1.8,0,0,1-1.06-1.6V707.21h27.57v38.33a1.8,1.8,0,0,1-1.06,1.6l-5.84,2.8-4,1.9a1.5,1.5,0,0,0-.88,1.33v7.58"/><path class="cls-60" d="M1832.54,760.75v-7.58a1.49,1.49,0,0,0-.88-1.33l-4-1.9-5.84-2.8a1.8,1.8,0,0,1-1.06-1.6V648.1h-3.14a1.68,1.68,0,0,1-1.75-1.6v-2.8a1.69,1.69,0,0,1,1.75-1.6h33.85a1.68,1.68,0,0,1,1.75,1.6v2.8a1.67,1.67,0,0,1-1.75,1.6h-3.14v97.44a1.8,1.8,0,0,1-1.06,1.6l-5.84,2.8-4,1.9a1.5,1.5,0,0,0-.88,1.33v7.58"/><ellipse class="cls-61" cx="1841.8" cy="740.22" rx="1.59" ry="1.45"/><ellipse class="cls-61" cx="1839.12" cy="746.49" rx="1.59" ry="1.45"/><ellipse class="cls-62" cx="1832.54" cy="732.9" rx="1.59" ry="1.45"/><ellipse class="cls-62" cx="1824.84" cy="735" rx="1.59" ry="1.45"/><ellipse class="cls-62" cx="1839.7" cy="725.85" rx="1.59" ry="1.45"/><ellipse class="cls-62" cx="1837.3" cy="722.32" rx="1.59" ry="1.45"/><ellipse class="cls-62" cx="1829.44" cy="712.79" rx="1.59" ry="1.45"/><ellipse class="cls-61" cx="1835.71" cy="738.3" rx="1.59" ry="1.45"/><ellipse class="cls-63" cx="1829.9" cy="720.87" rx="1.59" ry="1.45"/><ellipse class="cls-63" cx="1840.71" cy="735.9" rx="1.59" ry="1.45"/><ellipse class="cls-63" cx="1843.8" cy="731.45" rx="1.59" ry="1.45"/><ellipse class="cls-64" cx="1834.59" cy="749.08" rx="1.59" ry="1.45"/><ellipse class="cls-64" cx="1827.23" cy="740.86" rx="1.59" ry="1.45"/><ellipse class="cls-64" cx="1827.23" cy="727.3" rx="1.59" ry="1.45"/><ellipse class="cls-64" cx="1833" cy="743.69" rx="1.59" ry="1.45"/><path class="cls-56" d="M1843,809.18V837.3c0,4-3.53,7.2-7.88,7.2s-7.87-3.22-7.87-7.2V809.18"/><path class="cls-59" d="M1843,773.87V837.3c0,4-3.53,7.2-7.88,7.2s-7.87-3.22-7.87-7.2V773.87Z"/><ellipse class="cls-61" cx="1832.09" cy="815.73" rx="1.59" ry="1.45"/><ellipse class="cls-61" cx="1837.84" cy="824.25" rx="1.59" ry="1.45"/><ellipse class="cls-61" cx="1832.09" cy="834.57" rx="1.59" ry="1.45"/><ellipse class="cls-64" cx="1836.25" cy="829.47" rx="1.59" ry="1.45"/><ellipse class="cls-64" cx="1834.66" cy="838.81" rx="1.59" ry="1.45"/><path class="cls-59" d="M1843,773.87V837.3c0,4-3.53,7.2-7.88,7.2s-7.87-3.22-7.87-7.2V773.87Z"/><path class="cls-56" d="M1817.38,787.36v45.49c0,6.44-3.53,11.65-7.88,11.65s-7.87-5.21-7.87-11.65V787.36"/><path class="cls-59" d="M1817.38,773.87V837.3c0,4-3.53,7.2-7.88,7.2s-7.87-3.22-7.87-7.2V773.87Z"/><ellipse class="cls-65" cx="1812.24" cy="803.88" rx="1.59" ry="1.45"/><ellipse class="cls-65" cx="1813" cy="834.57" rx="1.59" ry="1.45"/><ellipse class="cls-65" cx="1807.48" cy="821.09" rx="1.59" ry="1.45"/><ellipse class="cls-65" cx="1807.48" cy="798.17" rx="1.59" ry="1.45"/><ellipse class="cls-65" cx="1813.82" cy="813.08" rx="1.59" ry="1.45"/><ellipse class="cls-65" cx="1804.91" cy="829.47" rx="1.59" ry="1.45"/><ellipse class="cls-64" cx="1810.65" cy="829.47" rx="1.59" ry="1.45"/><path class="cls-59" d="M1817.38,773.87V837.3c0,4-3.53,7.2-7.88,7.2s-7.87-3.22-7.87-7.2V773.87Z"/></g><g id="图层_14" data-name="图层 14"><path class="cls-66" d="M1608,893.17h308.72a30.38,30.38,0,0,1,30.38,30.38V1134.9a30.38,30.38,0,0,1-30.38,30.38H1607.63a30,30,0,0,1-30-30V923.56A30.38,30.38,0,0,1,1608,893.17Z"/><text class="cls-3" transform="translate(1600.56 933.2)">Measure <tspan class="cls-67" x="121.86" y="0">T</tspan></text><text class="cls-68" transform="translate(1740.77 936.19) scale(0.58)">m</text><path class="cls-56" d="M1922.18,928.07a.09.09,0,0,1,.13.07v150.63c0,2.44-1.68,4.7-4.4,5.92l-93.29,41.82V1004.34l35-48.22Z"/><path class="cls-69" d="M1922.18,928.07a.09.09,0,0,1,.13.07v150.63c0,2.44-1.68,4.7-4.4,5.92l-93.29,41.82V1004.34l35-48.22Z"/><path class="cls-70" d="M1922.18,928.07a.09.09,0,0,1,.13.07v150.63c0,2.44-1.68,4.7-4.4,5.92l-93.29,41.82V1004.34l35-48.22Z"/><path class="cls-70" d="M1812.52,930.26v152.46l-97.68,43.79V1004.34l34.94-48.16a.27.27,0,0,1,.12-.09l60.29-27A1.6,1.6,0,0,1,1812.52,930.26Z"/><rect class="cls-71" x="1714.84" y="1004.34" width="109.79" height="122.16" rx="0.64"/><rect class="cls-72" x="1714.84" y="1078.88" width="109.79" height="47.6" rx="0.38"/><path class="cls-72" d="M1700.52,1085.3l14.32-6.42v47.59l-14.22,6.38a.07.07,0,0,1-.1-.06Z"/><path class="cls-71" d="M1810.44,1085.24l13.81-6.19a.25.25,0,0,1,.37.19v47.1a.21.21,0,0,1-.13.19l-13.81,6.2a.26.26,0,0,1-.37-.2v-47.1A.21.21,0,0,1,1810.44,1085.24Z"/><rect class="cls-71" x="1700.52" y="1085.3" width="109.79" height="47.6" rx="0.5"/><path class="cls-71" d="M1810,929.12,1750.12,956c-.08,0,0,.13,0,.13h109.47l62.39-28a.07.07,0,0,0,0-.13H1815.39A13.31,13.31,0,0,0,1810,929.12Z"/><path class="cls-72" d="M1749.83,956.12,1715.06,1004c-.1.13,0,.3.2.3h109.36l35-48.22Z"/><polygon class="cls-73" points="1753.57 958.53 1722.08 1001.93 1820.88 1001.93 1852.38 958.53 1753.57 958.53"/></g><g id="图层_15" data-name="图层 15"><path class="cls-74" d="M2006.69,893.17H2326.9a30.38,30.38,0,0,1,30.38,30.38V1134.9a30.38,30.38,0,0,1-30.38,30.38H2006.3a30,30,0,0,1-30-30V923.56A30.38,30.38,0,0,1,2006.69,893.17Z"/><text class="cls-3" transform="translate(1999.23 933.2)">Measure enzyme activity</text><path class="cls-75" d="M2240.64,987.57v10.86l-1.33,12.64-2.27,14a1.86,1.86,0,0,1-.64,1.11c-1.5,1.28-3.13,1.31-4.93,0a1.86,1.86,0,0,1-.75-1.2l-2.25-13.93-1.34-12.64V987.57Z"/><ellipse class="cls-75" cx="2233.89" cy="987.12" rx="7.43" ry="4.06"/><ellipse class="cls-75" cx="2233.89" cy="987.12" rx="6.76" ry="3.6"/><path class="cls-75" d="M2247.41,997.54v10.86l-1.33,12.64-2.27,14a1.89,1.89,0,0,1-.63,1.11c-1.51,1.28-3.14,1.32-4.94,0a1.86,1.86,0,0,1-.75-1.2l-2.25-13.93-1.34-12.64V997.54Z"/><ellipse class="cls-75" cx="2240.66" cy="997.09" rx="7.43" ry="4.06"/><ellipse class="cls-75" cx="2240.66" cy="997.09" rx="6.76" ry="3.6"/><path class="cls-75" d="M2254.19,1007.51v10.86l-1.34,12.64-2.27,14a1.87,1.87,0,0,1-.63,1.11c-1.5,1.28-3.14,1.32-4.94,0a1.86,1.86,0,0,1-.75-1.2L2242,1031l-1.34-12.64v-10.86Z"/><ellipse class="cls-75" cx="2247.43" cy="1007.06" rx="7.43" ry="4.06"/><ellipse class="cls-75" cx="2247.43" cy="1007.06" rx="6.76" ry="3.6"/><path class="cls-75" d="M2261,1017.48v10.86l-1.34,12.64-2.27,14a1.87,1.87,0,0,1-.63,1.11c-1.5,1.28-3.13,1.32-4.94,0a1.85,1.85,0,0,1-.74-1.2l-2.26-13.93-1.33-12.64v-10.86Z"/><ellipse class="cls-75" cx="2254.2" cy="1017.03" rx="7.43" ry="4.06"/><ellipse class="cls-75" cx="2254.2" cy="1017.03" rx="6.76" ry="3.6"/><path class="cls-75" d="M2267.73,1027.45v10.86l-1.34,12.64-2.27,14a1.82,1.82,0,0,1-.63,1.11c-1.5,1.28-3.13,1.32-4.94,0a1.89,1.89,0,0,1-.74-1.2l-2.26-13.93-1.33-12.64v-10.86Z"/><ellipse class="cls-75" cx="2260.97" cy="1027.01" rx="7.43" ry="4.06"/><ellipse class="cls-75" cx="2260.97" cy="1027.01" rx="6.76" ry="3.6"/><path class="cls-75" d="M2274.5,1037.43v10.85l-1.33,12.64-2.28,14a1.82,1.82,0,0,1-.63,1.11c-1.5,1.28-3.13,1.32-4.94,0a1.89,1.89,0,0,1-.74-1.2l-2.26-13.93-1.33-12.64v-10.85Z"/><ellipse class="cls-75" cx="2267.74" cy="1036.98" rx="7.43" ry="4.06"/><ellipse class="cls-75" cx="2267.74" cy="1036.98" rx="6.76" ry="3.6"/><path class="cls-75" d="M2281.27,1047.4v10.85l-1.33,12.64-2.27,14a1.83,1.83,0,0,1-.64,1.11c-1.5,1.29-3.13,1.32-4.93,0a1.86,1.86,0,0,1-.75-1.2l-2.25-13.93-1.34-12.64V1047.4Z"/><ellipse class="cls-75" cx="2274.52" cy="1046.95" rx="7.43" ry="4.06"/><ellipse class="cls-75" cx="2274.52" cy="1046.95" rx="6.76" ry="3.6"/><path class="cls-75" d="M2288,1057.37v10.85l-1.33,12.64-2.27,14a1.87,1.87,0,0,1-.63,1.11c-1.51,1.29-3.14,1.32-4.94,0a1.86,1.86,0,0,1-.75-1.2l-2.25-13.93-1.34-12.64v-10.85Z"/><ellipse class="cls-75" cx="2281.29" cy="1056.92" rx="7.43" ry="4.06"/><ellipse class="cls-75" cx="2281.29" cy="1056.92" rx="6.76" ry="3.6"/><path class="cls-75" d="M2294.82,1067.34v10.85l-1.34,12.64-2.27,14a1.87,1.87,0,0,1-.63,1.11c-1.5,1.29-3.14,1.32-4.94,0a1.86,1.86,0,0,1-.75-1.2l-2.25-13.93-1.34-12.64v-10.85Z"/><ellipse class="cls-75" cx="2288.06" cy="1066.89" rx="7.43" ry="4.06"/><ellipse class="cls-75" cx="2288.06" cy="1066.89" rx="6.76" ry="3.6"/><path class="cls-75" d="M2222.88,991.18V1002l-1.33,12.64-2.27,14a1.87,1.87,0,0,1-.63,1.11c-1.51,1.28-3.14,1.32-4.94,0a1.86,1.86,0,0,1-.75-1.2l-2.25-13.93-1.34-12.64V991.18Z"/><ellipse class="cls-75" cx="2216.13" cy="990.73" rx="7.43" ry="4.06"/><ellipse class="cls-75" cx="2216.13" cy="990.73" rx="6.76" ry="3.6"/><path class="cls-75" d="M2229.66,1001.15V1012l-1.34,12.64-2.27,14a1.87,1.87,0,0,1-.63,1.11c-1.5,1.29-3.14,1.32-4.94,0a1.86,1.86,0,0,1-.75-1.2l-2.25-13.93-1.33-12.64v-10.85Z"/><ellipse class="cls-75" cx="2222.9" cy="1000.7" rx="7.43" ry="4.06"/><ellipse class="cls-75" cx="2222.9" cy="1000.7" rx="6.76" ry="3.6"/><path class="cls-75" d="M2236.43,1011.12V1022l-1.34,12.64-2.27,14a1.87,1.87,0,0,1-.63,1.11c-1.5,1.29-3.13,1.32-4.94,0a1.85,1.85,0,0,1-.74-1.2l-2.26-13.93-1.33-12.64v-10.85Z"/><ellipse class="cls-75" cx="2229.67" cy="1010.67" rx="7.43" ry="4.06"/><ellipse class="cls-75" cx="2229.67" cy="1010.67" rx="6.76" ry="3.6"/><path class="cls-75" d="M2243.2,1021.09v10.85l-1.34,12.64-2.27,14a1.79,1.79,0,0,1-.63,1.11c-1.5,1.29-3.13,1.32-4.94,0a1.89,1.89,0,0,1-.74-1.2l-2.26-13.93-1.33-12.64v-10.85Z"/><ellipse class="cls-75" cx="2236.44" cy="1020.64" rx="7.43" ry="4.06"/><ellipse class="cls-75" cx="2236.44" cy="1020.64" rx="6.76" ry="3.6"/><path class="cls-75" d="M2250,1031.06v10.85l-1.33,12.65-2.28,14a1.84,1.84,0,0,1-.63,1.12c-1.5,1.28-3.13,1.31-4.94,0a1.89,1.89,0,0,1-.74-1.2l-2.26-13.92-1.33-12.65v-10.85Z"/><ellipse class="cls-75" cx="2243.21" cy="1030.61" rx="7.43" ry="4.06"/><ellipse class="cls-75" cx="2243.21" cy="1030.61" rx="6.76" ry="3.6"/><path class="cls-75" d="M2256.74,1041v10.85l-1.33,12.65-2.27,14a1.85,1.85,0,0,1-.64,1.12c-1.5,1.28-3.13,1.31-4.93,0a1.84,1.84,0,0,1-.75-1.2l-2.25-13.92-1.34-12.65V1041Z"/><ellipse class="cls-75" cx="2249.99" cy="1040.58" rx="7.43" ry="4.06"/><ellipse class="cls-75" cx="2249.99" cy="1040.58" rx="6.76" ry="3.6"/><path class="cls-75" d="M2263.51,1051v10.86l-1.33,12.64-2.27,14a1.89,1.89,0,0,1-.63,1.12c-1.51,1.28-3.14,1.31-4.94,0a1.82,1.82,0,0,1-.75-1.2l-2.25-13.92-1.34-12.64V1051Z"/><ellipse class="cls-75" cx="2256.76" cy="1050.55" rx="7.43" ry="4.06"/><ellipse class="cls-75" cx="2256.76" cy="1050.55" rx="6.76" ry="3.6"/><path class="cls-75" d="M2270.29,1061v10.86l-1.34,12.64-2.27,14a1.89,1.89,0,0,1-.63,1.12c-1.5,1.28-3.14,1.31-4.94,0a1.82,1.82,0,0,1-.75-1.2l-2.25-13.92-1.34-12.64V1061Z"/><ellipse class="cls-75" cx="2263.53" cy="1060.52" rx="7.43" ry="4.06"/><ellipse class="cls-75" cx="2263.53" cy="1060.52" rx="6.76" ry="3.6"/><path class="cls-75" d="M2277.06,1070.94v10.86l-1.34,12.64-2.27,14a1.89,1.89,0,0,1-.63,1.12c-1.5,1.28-3.13,1.31-4.94,0a1.85,1.85,0,0,1-.74-1.21l-2.26-13.92-1.33-12.64v-10.86Z"/><ellipse class="cls-75" cx="2270.3" cy="1070.49" rx="7.43" ry="4.06"/><ellipse class="cls-75" cx="2270.3" cy="1070.49" rx="6.76" ry="3.6"/><path class="cls-75" d="M2205.13,994.78v10.85l-1.34,12.65-2.27,14a1.89,1.89,0,0,1-.63,1.12c-1.5,1.28-3.14,1.31-4.94,0a1.84,1.84,0,0,1-.75-1.2l-2.25-13.92-1.33-12.65V994.78Z"/><ellipse class="cls-75" cx="2198.37" cy="994.33" rx="7.43" ry="4.06"/><ellipse class="cls-75" cx="2198.37" cy="994.33" rx="6.76" ry="3.6"/><path class="cls-75" d="M2211.9,1004.75v10.86l-1.34,12.64-2.27,14a1.89,1.89,0,0,1-.63,1.12c-1.5,1.28-3.13,1.31-4.94,0a1.8,1.8,0,0,1-.74-1.2l-2.26-13.92-1.33-12.64v-10.86Z"/><ellipse class="cls-75" cx="2205.14" cy="1004.3" rx="7.43" ry="4.06"/><ellipse class="cls-75" cx="2205.14" cy="1004.3" rx="6.76" ry="3.6"/><path class="cls-75" d="M2218.67,1014.72v10.86l-1.34,12.64-2.27,14a1.84,1.84,0,0,1-.63,1.12c-1.5,1.28-3.13,1.31-4.94,0a1.84,1.84,0,0,1-.74-1.2l-2.26-13.92-1.33-12.64v-10.86Z"/><ellipse class="cls-75" cx="2211.91" cy="1014.27" rx="7.43" ry="4.06"/><ellipse class="cls-75" cx="2211.91" cy="1014.27" rx="6.76" ry="3.6"/><path class="cls-75" d="M2225.44,1024.69v10.86l-1.33,12.64-2.28,14a1.84,1.84,0,0,1-.63,1.12c-1.5,1.28-3.13,1.31-4.94,0a1.89,1.89,0,0,1-.74-1.21l-2.25-13.92-1.34-12.64v-10.86Z"/><ellipse class="cls-75" cx="2218.69" cy="1024.24" rx="7.43" ry="4.06"/><ellipse class="cls-75" cx="2218.69" cy="1024.24" rx="6.76" ry="3.6"/><path class="cls-75" d="M2232.21,1034.66v10.86l-1.33,12.64-2.27,14a1.85,1.85,0,0,1-.64,1.12c-1.5,1.28-3.13,1.31-4.93,0a1.86,1.86,0,0,1-.75-1.21l-2.25-13.92-1.34-12.64v-10.86Z"/><ellipse class="cls-75" cx="2225.46" cy="1034.21" rx="7.43" ry="4.06"/><ellipse class="cls-75" cx="2225.46" cy="1034.21" rx="6.76" ry="3.6"/><path class="cls-75" d="M2239,1044.63v10.86l-1.33,12.64-2.27,14a1.89,1.89,0,0,1-.63,1.11c-1.51,1.28-3.14,1.31-4.94,0a1.86,1.86,0,0,1-.75-1.21l-2.25-13.92-1.34-12.64v-10.86Z"/><ellipse class="cls-75" cx="2232.23" cy="1044.18" rx="7.43" ry="4.06"/><ellipse class="cls-75" cx="2232.23" cy="1044.18" rx="6.76" ry="3.6"/><path class="cls-75" d="M2245.76,1054.6v10.86l-1.34,12.64-2.27,14a1.89,1.89,0,0,1-.63,1.11c-1.5,1.28-3.14,1.32-4.94,0a1.86,1.86,0,0,1-.75-1.2l-2.25-13.93-1.34-12.64V1054.6Z"/><ellipse class="cls-75" cx="2239" cy="1054.15" rx="7.43" ry="4.06"/><ellipse class="cls-75" cx="2239" cy="1054.15" rx="6.76" ry="3.6"/><path class="cls-75" d="M2252.53,1064.57v10.86l-1.34,12.64-2.27,14a1.89,1.89,0,0,1-.63,1.11c-1.5,1.28-3.13,1.32-4.94,0a1.85,1.85,0,0,1-.74-1.2l-2.26-13.93-1.33-12.64v-10.86Z"/><ellipse class="cls-75" cx="2245.77" cy="1064.12" rx="7.43" ry="4.06"/><ellipse class="cls-75" cx="2245.77" cy="1064.12" rx="6.76" ry="3.6"/><path class="cls-75" d="M2259.3,1074.54v10.86L2258,1098l-2.27,14a1.82,1.82,0,0,1-.63,1.11c-1.5,1.28-3.13,1.32-4.94,0a1.89,1.89,0,0,1-.74-1.2l-2.26-13.93-1.33-12.64v-10.86Z"/><ellipse class="cls-75" cx="2252.54" cy="1074.09" rx="7.43" ry="4.06"/><ellipse class="cls-75" cx="2252.54" cy="1074.09" rx="6.76" ry="3.6"/><path class="cls-75" d="M2187.37,998.38v10.86l-1.34,12.64-2.27,14a1.89,1.89,0,0,1-.63,1.11c-1.5,1.28-3.13,1.31-4.94,0a1.85,1.85,0,0,1-.74-1.2l-2.26-13.93-1.33-12.64V998.38Z"/><ellipse class="cls-75" cx="2180.61" cy="997.93" rx="7.43" ry="4.06"/><ellipse class="cls-75" cx="2180.61" cy="997.93" rx="6.76" ry="3.6"/><path class="cls-75" d="M2194.14,1008.35v10.86l-1.34,12.64-2.27,14a1.84,1.84,0,0,1-.63,1.11c-1.5,1.28-3.13,1.32-4.94,0a1.89,1.89,0,0,1-.74-1.2l-2.26-13.93-1.33-12.64v-10.86Z"/><ellipse class="cls-75" cx="2187.38" cy="1007.9" rx="7.43" ry="4.06"/><ellipse class="cls-75" cx="2187.38" cy="1007.9" rx="6.76" ry="3.6"/><path class="cls-75" d="M2200.91,1018.32v10.86l-1.33,12.64-2.28,14a1.84,1.84,0,0,1-.63,1.11c-1.5,1.28-3.13,1.32-4.94,0a1.89,1.89,0,0,1-.74-1.2l-2.25-13.93-1.34-12.64v-10.86Z"/><ellipse class="cls-75" cx="2194.16" cy="1017.87" rx="7.43" ry="4.06"/><ellipse class="cls-75" cx="2194.16" cy="1017.87" rx="6.76" ry="3.6"/><path class="cls-75" d="M2207.68,1028.29v10.86l-1.33,12.64-2.27,14a1.83,1.83,0,0,1-.64,1.11c-1.5,1.28-3.13,1.32-4.93,0a1.86,1.86,0,0,1-.75-1.2l-2.25-13.93-1.34-12.64v-10.86Z"/><ellipse class="cls-75" cx="2200.93" cy="1027.84" rx="7.43" ry="4.06"/><ellipse class="cls-75" cx="2200.93" cy="1027.84" rx="6.76" ry="3.6"/><path class="cls-75" d="M2214.45,1038.26v10.86l-1.33,12.64-2.27,14a1.87,1.87,0,0,1-.63,1.11c-1.51,1.28-3.14,1.32-4.94,0a1.86,1.86,0,0,1-.75-1.2l-2.25-13.93-1.34-12.64v-10.86Z"/><ellipse class="cls-75" cx="2207.7" cy="1037.82" rx="7.43" ry="4.06"/><ellipse class="cls-75" cx="2207.7" cy="1037.82" rx="6.76" ry="3.6"/><path class="cls-75" d="M2221.23,1048.24v10.85l-1.34,12.64-2.27,14a1.87,1.87,0,0,1-.63,1.11c-1.5,1.28-3.14,1.32-4.94,0a1.86,1.86,0,0,1-.75-1.2l-2.25-13.93-1.33-12.64v-10.85Z"/><ellipse class="cls-75" cx="2214.47" cy="1047.79" rx="7.43" ry="4.06"/><ellipse class="cls-75" cx="2214.47" cy="1047.79" rx="6.76" ry="3.6"/><path class="cls-75" d="M2228,1058.21v10.85l-1.34,12.64-2.27,14a1.87,1.87,0,0,1-.63,1.11c-1.5,1.28-3.13,1.32-4.94,0a1.85,1.85,0,0,1-.74-1.2l-2.26-13.93-1.33-12.64v-10.85Z"/><ellipse class="cls-75" cx="2221.24" cy="1057.76" rx="7.43" ry="4.06"/><ellipse class="cls-75" cx="2221.24" cy="1057.76" rx="6.76" ry="3.6"/><path class="cls-75" d="M2234.77,1068.18V1079l-1.34,12.64-2.27,14a1.82,1.82,0,0,1-.63,1.11c-1.5,1.29-3.13,1.32-4.94,0a1.89,1.89,0,0,1-.74-1.2l-2.26-13.93-1.33-12.64v-10.85Z"/><ellipse class="cls-75" cx="2228.01" cy="1067.73" rx="7.43" ry="4.06"/><ellipse class="cls-75" cx="2228.01" cy="1067.73" rx="6.76" ry="3.6"/><path class="cls-75" d="M2241.54,1078.15V1089l-1.33,12.64-2.28,14a1.82,1.82,0,0,1-.63,1.11c-1.5,1.29-3.13,1.32-4.94,0a1.89,1.89,0,0,1-.74-1.2l-2.26-13.93L2228,1089v-10.85Z"/><ellipse class="cls-75" cx="2234.78" cy="1077.7" rx="7.43" ry="4.06"/><ellipse class="cls-75" cx="2234.78" cy="1077.7" rx="6.76" ry="3.6"/><path class="cls-75" d="M2169.61,1002v10.85l-1.34,12.64-2.27,14a1.82,1.82,0,0,1-.63,1.11c-1.5,1.28-3.13,1.32-4.94,0a1.89,1.89,0,0,1-.74-1.2l-2.26-13.93-1.33-12.64V1002Z"/><ellipse class="cls-75" cx="2162.85" cy="1001.54" rx="7.43" ry="4.06"/><ellipse class="cls-75" cx="2162.85" cy="1001.54" rx="6.76" ry="3.6"/><path class="cls-75" d="M2176.38,1012v10.85l-1.33,12.64-2.27,14a1.88,1.88,0,0,1-.64,1.11c-1.5,1.29-3.13,1.32-4.93,0a1.86,1.86,0,0,1-.75-1.2l-2.25-13.93-1.34-12.64V1012Z"/><ellipse class="cls-75" cx="2169.63" cy="1011.51" rx="7.43" ry="4.06"/><ellipse class="cls-75" cx="2169.63" cy="1011.51" rx="6.76" ry="3.6"/><path class="cls-75" d="M2183.15,1021.93v10.85l-1.33,12.64-2.27,14a1.83,1.83,0,0,1-.64,1.11c-1.5,1.29-3.13,1.32-4.93,0a1.86,1.86,0,0,1-.75-1.2l-2.25-13.93-1.34-12.64v-10.85Z"/><ellipse class="cls-75" cx="2176.4" cy="1021.48" rx="7.43" ry="4.06"/><ellipse class="cls-75" cx="2176.4" cy="1021.48" rx="6.76" ry="3.6"/><path class="cls-75" d="M2189.92,1031.9v10.85l-1.33,12.64-2.27,14a1.87,1.87,0,0,1-.63,1.11c-1.51,1.29-3.14,1.32-4.94,0a1.86,1.86,0,0,1-.75-1.2l-2.25-13.93-1.34-12.64V1031.9Z"/><ellipse class="cls-75" cx="2183.17" cy="1031.45" rx="7.43" ry="4.06"/><ellipse class="cls-75" cx="2183.17" cy="1031.45" rx="6.76" ry="3.6"/><path class="cls-75" d="M2196.7,1041.87v10.85l-1.34,12.65-2.27,14a1.84,1.84,0,0,1-.63,1.11c-1.5,1.29-3.14,1.32-4.94,0a1.86,1.86,0,0,1-.75-1.2l-2.25-13.92-1.33-12.65v-10.85Z"/><ellipse class="cls-75" cx="2189.94" cy="1041.42" rx="7.43" ry="4.06"/><ellipse class="cls-75" cx="2189.94" cy="1041.42" rx="6.76" ry="3.6"/><path class="cls-75" d="M2203.47,1051.84v10.85l-1.34,12.65-2.27,14a1.89,1.89,0,0,1-.63,1.12c-1.5,1.28-3.13,1.31-4.94,0a1.85,1.85,0,0,1-.74-1.2l-2.26-13.92-1.33-12.65v-10.85Z"/><ellipse class="cls-75" cx="2196.71" cy="1051.39" rx="7.43" ry="4.06"/><ellipse class="cls-75" cx="2196.71" cy="1051.39" rx="6.76" ry="3.6"/><path class="cls-75" d="M2210.24,1061.81v10.85l-1.34,12.65-2.27,14a1.84,1.84,0,0,1-.63,1.12c-1.5,1.28-3.13,1.31-4.94,0a1.87,1.87,0,0,1-.74-1.2l-2.26-13.92-1.33-12.65v-10.85Z"/><ellipse class="cls-75" cx="2203.48" cy="1061.36" rx="7.43" ry="4.06"/><ellipse class="cls-75" cx="2203.48" cy="1061.36" rx="6.76" ry="3.6"/><path class="cls-75" d="M2217,1071.78v10.86l-1.33,12.64-2.28,14a1.84,1.84,0,0,1-.63,1.12c-1.5,1.28-3.13,1.31-4.94,0a1.84,1.84,0,0,1-.74-1.2l-2.25-13.92-1.34-12.64v-10.86Z"/><ellipse class="cls-75" cx="2210.26" cy="1071.33" rx="7.43" ry="4.06"/><ellipse class="cls-75" cx="2210.26" cy="1071.33" rx="6.76" ry="3.6"/><path class="cls-75" d="M2223.78,1081.75v10.86l-1.33,12.64-2.27,14a1.85,1.85,0,0,1-.64,1.12c-1.5,1.28-3.13,1.31-4.93,0a1.82,1.82,0,0,1-.75-1.2l-2.25-13.92-1.34-12.64v-10.86Z"/><ellipse class="cls-75" cx="2217.03" cy="1081.3" rx="7.43" ry="4.06"/><ellipse class="cls-75" cx="2217.03" cy="1081.3" rx="6.76" ry="3.6"/><path class="cls-75" d="M2151.85,1005.59v10.85l-1.33,12.65-2.27,14a1.9,1.9,0,0,1-.64,1.12c-1.5,1.28-3.13,1.31-4.93,0a1.84,1.84,0,0,1-.75-1.2l-2.25-13.92-1.34-12.65v-10.85Z"/><ellipse class="cls-75" cx="2145.1" cy="1005.14" rx="7.43" ry="4.06"/><ellipse class="cls-75" cx="2145.1" cy="1005.14" rx="6.76" ry="3.6"/><path class="cls-75" d="M2158.62,1015.56v10.86l-1.33,12.64-2.27,14a1.85,1.85,0,0,1-.64,1.12c-1.5,1.28-3.13,1.31-4.93,0a1.82,1.82,0,0,1-.75-1.2l-2.25-13.92-1.34-12.64v-10.86Z"/><ellipse class="cls-75" cx="2151.87" cy="1015.11" rx="7.43" ry="4.06"/><ellipse class="cls-75" cx="2151.87" cy="1015.11" rx="6.76" ry="3.6"/><path class="cls-75" d="M2165.39,1025.53v10.86l-1.33,12.64-2.27,14a1.89,1.89,0,0,1-.63,1.12c-1.51,1.28-3.14,1.31-4.94,0a1.82,1.82,0,0,1-.75-1.2l-2.25-13.92-1.34-12.64v-10.86Z"/><ellipse class="cls-75" cx="2158.64" cy="1025.08" rx="7.43" ry="4.06"/><ellipse class="cls-75" cx="2158.64" cy="1025.08" rx="6.76" ry="3.6"/><path class="cls-75" d="M2172.17,1035.5v10.86l-1.34,12.64-2.27,14a1.89,1.89,0,0,1-.63,1.12c-1.5,1.28-3.14,1.31-4.94,0a1.86,1.86,0,0,1-.75-1.21L2160,1059l-1.33-12.64V1035.5Z"/><ellipse class="cls-75" cx="2165.41" cy="1035.05" rx="7.43" ry="4.06"/><ellipse class="cls-75" cx="2165.41" cy="1035.05" rx="6.76" ry="3.6"/><path class="cls-75" d="M2178.94,1045.47v10.86L2177.6,1069l-2.27,14a1.89,1.89,0,0,1-.63,1.12c-1.5,1.28-3.13,1.31-4.94,0a1.85,1.85,0,0,1-.74-1.21l-2.26-13.92-1.33-12.64v-10.86Z"/><ellipse class="cls-75" cx="2172.18" cy="1045.02" rx="7.43" ry="4.06"/><ellipse class="cls-75" cx="2172.18" cy="1045.02" rx="6.76" ry="3.6"/><path class="cls-75" d="M2185.71,1055.44v10.86l-1.34,12.64-2.27,14a1.84,1.84,0,0,1-.63,1.11c-1.5,1.28-3.13,1.31-4.94,0a1.89,1.89,0,0,1-.74-1.21l-2.26-13.92-1.33-12.64v-10.86Z"/><ellipse class="cls-75" cx="2178.95" cy="1054.99" rx="7.43" ry="4.06"/><ellipse class="cls-75" cx="2178.95" cy="1054.99" rx="6.76" ry="3.6"/><path class="cls-75" d="M2192.48,1065.41v10.86l-1.33,12.64-2.28,14a1.84,1.84,0,0,1-.63,1.11c-1.5,1.28-3.13,1.31-4.93,0a1.86,1.86,0,0,1-.75-1.2l-2.25-13.93-1.34-12.64v-10.86Z"/><ellipse class="cls-75" cx="2185.73" cy="1064.96" rx="7.43" ry="4.06"/><ellipse class="cls-75" cx="2185.73" cy="1064.96" rx="6.76" ry="3.6"/><path class="cls-75" d="M2199.25,1075.38v10.86l-1.33,12.64-2.27,14a1.86,1.86,0,0,1-.64,1.11c-1.5,1.28-3.13,1.32-4.93,0a1.86,1.86,0,0,1-.75-1.2l-2.25-13.93-1.34-12.64v-10.86Z"/><ellipse class="cls-75" cx="2192.5" cy="1074.93" rx="7.43" ry="4.06"/><ellipse class="cls-75" cx="2192.5" cy="1074.93" rx="6.76" ry="3.6"/><path class="cls-75" d="M2206,1085.35v10.86l-1.33,12.64-2.27,14a1.89,1.89,0,0,1-.63,1.11c-1.51,1.28-3.14,1.32-4.94,0a1.86,1.86,0,0,1-.75-1.2l-2.25-13.93-1.34-12.64v-10.86Z"/><ellipse class="cls-75" cx="2199.27" cy="1084.9" rx="7.43" ry="4.06"/><ellipse class="cls-75" cx="2199.27" cy="1084.9" rx="6.76" ry="3.6"/><path class="cls-75" d="M2134.09,1009.19v10.86l-1.33,12.64-2.27,14a1.89,1.89,0,0,1-.63,1.11c-1.51,1.28-3.14,1.31-4.94,0a1.86,1.86,0,0,1-.75-1.21l-2.25-13.92-1.34-12.64v-10.86Z"/><ellipse class="cls-75" cx="2127.34" cy="1008.74" rx="7.43" ry="4.06"/><ellipse class="cls-75" cx="2127.34" cy="1008.74" rx="6.76" ry="3.6"/><path class="cls-75" d="M2140.87,1019.16V1030l-1.34,12.64-2.27,14a1.89,1.89,0,0,1-.63,1.11c-1.5,1.28-3.14,1.32-4.94,0a1.86,1.86,0,0,1-.75-1.2l-2.25-13.93-1.34-12.64v-10.86Z"/><ellipse class="cls-75" cx="2134.11" cy="1018.71" rx="7.43" ry="4.06"/><ellipse class="cls-75" cx="2134.11" cy="1018.71" rx="6.76" ry="3.6"/><path class="cls-75" d="M2147.64,1029.13V1040l-1.34,12.64-2.27,14a1.89,1.89,0,0,1-.63,1.11c-1.5,1.28-3.13,1.32-4.94,0a1.86,1.86,0,0,1-.75-1.2l-2.25-13.93-1.33-12.64v-10.86Z"/><ellipse class="cls-75" cx="2140.88" cy="1028.68" rx="7.43" ry="4.06"/><ellipse class="cls-75" cx="2140.88" cy="1028.68" rx="6.76" ry="3.6"/><path class="cls-75" d="M2154.41,1039.1V1050l-1.34,12.64-2.27,14a1.87,1.87,0,0,1-.63,1.11c-1.5,1.28-3.13,1.32-4.94,0a1.85,1.85,0,0,1-.74-1.2l-2.26-13.93L2140.9,1050V1039.1Z"/><ellipse class="cls-75" cx="2147.65" cy="1038.65" rx="7.43" ry="4.06"/><ellipse class="cls-75" cx="2147.65" cy="1038.65" rx="6.76" ry="3.6"/><path class="cls-75" d="M2161.18,1049.07v10.86l-1.34,12.64-2.27,14a1.82,1.82,0,0,1-.63,1.11c-1.5,1.28-3.13,1.32-4.94,0a1.89,1.89,0,0,1-.74-1.2l-2.26-13.93-1.33-12.64v-10.86Z"/><ellipse class="cls-75" cx="2154.42" cy="1048.62" rx="7.43" ry="4.06"/><ellipse class="cls-75" cx="2154.42" cy="1048.62" rx="6.76" ry="3.6"/><path class="cls-75" d="M2168,1059.05v10.85l-1.33,12.64-2.27,14a1.88,1.88,0,0,1-.64,1.11c-1.5,1.28-3.13,1.32-4.93,0a1.86,1.86,0,0,1-.75-1.2l-2.25-13.93-1.34-12.64v-10.85Z"/><ellipse class="cls-75" cx="2161.2" cy="1058.6" rx="7.43" ry="4.06"/><ellipse class="cls-75" cx="2161.2" cy="1058.6" rx="6.76" ry="3.6"/><path class="cls-75" d="M2174.72,1069v10.85l-1.33,12.64-2.27,14a1.83,1.83,0,0,1-.64,1.11c-1.5,1.28-3.13,1.32-4.93,0a1.86,1.86,0,0,1-.75-1.2l-2.25-13.93-1.34-12.64V1069Z"/><ellipse class="cls-75" cx="2167.97" cy="1068.57" rx="7.43" ry="4.06"/><ellipse class="cls-75" cx="2167.97" cy="1068.57" rx="6.76" ry="3.6"/><path class="cls-75" d="M2181.49,1079v10.85l-1.33,12.64-2.27,14a1.87,1.87,0,0,1-.63,1.11c-1.51,1.29-3.14,1.32-4.94,0a1.86,1.86,0,0,1-.75-1.2l-2.25-13.93-1.34-12.64V1079Z"/><ellipse class="cls-75" cx="2174.74" cy="1078.54" rx="7.43" ry="4.06"/><ellipse class="cls-75" cx="2174.74" cy="1078.54" rx="6.76" ry="3.6"/><path class="cls-75" d="M2188.27,1089v10.85l-1.34,12.64-2.27,14a1.87,1.87,0,0,1-.63,1.11c-1.5,1.29-3.14,1.32-4.94,0a1.86,1.86,0,0,1-.75-1.2l-2.25-13.93-1.33-12.64V1089Z"/><ellipse class="cls-75" cx="2181.51" cy="1088.51" rx="7.43" ry="4.06"/><ellipse class="cls-75" cx="2181.51" cy="1088.51" rx="6.76" ry="3.6"/><path class="cls-75" d="M2116.34,1012.8v10.85l-1.34,12.64-2.27,14a1.87,1.87,0,0,1-.63,1.11c-1.5,1.28-3.14,1.32-4.94,0a1.86,1.86,0,0,1-.75-1.2l-2.25-13.93-1.34-12.64V1012.8Z"/><ellipse class="cls-75" cx="2109.58" cy="1012.35" rx="7.43" ry="4.06"/><ellipse class="cls-75" cx="2109.58" cy="1012.35" rx="6.76" ry="3.6"/><path class="cls-75" d="M2123.11,1022.77v10.85l-1.34,12.64-2.27,14a1.87,1.87,0,0,1-.63,1.11c-1.5,1.28-3.13,1.32-4.94,0a1.9,1.9,0,0,1-.75-1.2l-2.25-13.93-1.33-12.64v-10.85Z"/><ellipse class="cls-75" cx="2116.35" cy="1022.32" rx="7.43" ry="4.06"/><ellipse class="cls-75" cx="2116.35" cy="1022.32" rx="6.76" ry="3.6"/><path class="cls-75" d="M2129.88,1032.74v10.85l-1.34,12.64-2.27,14a1.87,1.87,0,0,1-.63,1.11c-1.5,1.29-3.13,1.32-4.94,0a1.85,1.85,0,0,1-.74-1.2l-2.26-13.93-1.33-12.64v-10.85Z"/><ellipse class="cls-75" cx="2123.12" cy="1032.29" rx="7.43" ry="4.06"/><ellipse class="cls-75" cx="2123.12" cy="1032.29" rx="6.76" ry="3.6"/><path class="cls-75" d="M2136.65,1042.71v10.85l-1.33,12.64-2.28,14a1.82,1.82,0,0,1-.63,1.11c-1.5,1.29-3.13,1.32-4.94,0a1.89,1.89,0,0,1-.74-1.2l-2.26-13.93-1.33-12.64v-10.85Z"/><ellipse class="cls-75" cx="2129.89" cy="1042.26" rx="7.43" ry="4.06"/><ellipse class="cls-75" cx="2129.89" cy="1042.26" rx="6.76" ry="3.6"/><path class="cls-75" d="M2143.42,1052.68v10.85l-1.33,12.64-2.27,14a1.85,1.85,0,0,1-.64,1.11c-1.5,1.29-3.13,1.32-4.93,0a1.86,1.86,0,0,1-.75-1.2l-2.25-13.93-1.34-12.64v-10.85Z"/><ellipse class="cls-75" cx="2136.67" cy="1052.23" rx="7.43" ry="4.06"/><ellipse class="cls-75" cx="2136.67" cy="1052.23" rx="6.76" ry="3.6"/><path class="cls-75" d="M2150.19,1062.65v10.85l-1.33,12.65-2.27,14a1.89,1.89,0,0,1-.63,1.12c-1.51,1.28-3.14,1.31-4.94,0a1.86,1.86,0,0,1-.75-1.2l-2.25-13.92-1.34-12.65v-10.85Z"/><ellipse class="cls-75" cx="2143.44" cy="1062.2" rx="7.43" ry="4.06"/><ellipse class="cls-75" cx="2143.44" cy="1062.2" rx="6.76" ry="3.6"/><path class="cls-75" d="M2157,1072.62v10.85l-1.33,12.65-2.27,14a1.89,1.89,0,0,1-.63,1.12c-1.51,1.28-3.14,1.31-4.94,0a1.84,1.84,0,0,1-.75-1.2l-2.25-13.92-1.34-12.65v-10.85Z"/><ellipse class="cls-75" cx="2150.21" cy="1072.17" rx="7.43" ry="4.06"/><ellipse class="cls-75" cx="2150.21" cy="1072.17" rx="6.76" ry="3.6"/><path class="cls-75" d="M2163.74,1082.59v10.86l-1.34,12.64-2.27,14a1.89,1.89,0,0,1-.63,1.12c-1.5,1.28-3.13,1.31-4.94,0a1.82,1.82,0,0,1-.75-1.2l-2.25-13.92-1.33-12.64v-10.86Z"/><ellipse class="cls-75" cx="2156.98" cy="1082.14" rx="7.43" ry="4.06"/><ellipse class="cls-75" cx="2156.98" cy="1082.14" rx="6.76" ry="3.6"/><path class="cls-75" d="M2170.51,1092.56v10.86l-1.34,12.64-2.27,14a1.89,1.89,0,0,1-.63,1.12c-1.5,1.28-3.13,1.31-4.94,0a1.8,1.8,0,0,1-.74-1.2l-2.26-13.92-1.33-12.64v-10.86Z"/><ellipse class="cls-75" cx="2163.75" cy="1092.11" rx="7.43" ry="4.06"/><ellipse class="cls-75" cx="2163.75" cy="1092.11" rx="6.76" ry="3.6"/><path class="cls-75" d="M2098.58,1016.4v10.85l-1.34,12.65-2.27,14a1.89,1.89,0,0,1-.63,1.12c-1.5,1.28-3.13,1.31-4.94,0a1.9,1.9,0,0,1-.75-1.2l-2.25-13.92-1.33-12.65V1016.4Z"/><ellipse class="cls-75" cx="2091.82" cy="1015.95" rx="7.43" ry="4.06"/><ellipse class="cls-75" cx="2091.82" cy="1015.95" rx="6.76" ry="3.6"/><path class="cls-75" d="M2105.35,1026.37v10.85l-1.34,12.65-2.27,14a1.84,1.84,0,0,1-.63,1.12c-1.5,1.28-3.13,1.31-4.94,0a1.83,1.83,0,0,1-.74-1.2l-2.26-13.92-1.33-12.65v-10.85Z"/><ellipse class="cls-75" cx="2098.59" cy="1025.92" rx="7.43" ry="4.06"/><ellipse class="cls-75" cx="2098.59" cy="1025.92" rx="6.76" ry="3.6"/><path class="cls-75" d="M2112.12,1036.34v10.86l-1.33,12.64-2.28,14a1.84,1.84,0,0,1-.63,1.12c-1.5,1.28-3.13,1.31-4.94,0a1.84,1.84,0,0,1-.74-1.2l-2.26-13.92-1.33-12.64v-10.86Z"/><ellipse class="cls-75" cx="2105.36" cy="1035.89" rx="7.43" ry="4.06"/><ellipse class="cls-75" cx="2105.36" cy="1035.89" rx="6.76" ry="3.6"/><path class="cls-75" d="M2118.89,1046.31v10.86l-1.33,12.64-2.27,14a1.85,1.85,0,0,1-.64,1.12c-1.5,1.28-3.13,1.31-4.93,0a1.82,1.82,0,0,1-.75-1.2l-2.25-13.92-1.34-12.64v-10.86Z"/><ellipse class="cls-75" cx="2112.14" cy="1045.86" rx="7.43" ry="4.06"/><ellipse class="cls-75" cx="2112.14" cy="1045.86" rx="6.76" ry="3.6"/><path class="cls-75" d="M2125.66,1056.28v10.86l-1.33,12.64-2.27,14a1.89,1.89,0,0,1-.63,1.12c-1.51,1.28-3.14,1.31-4.94,0a1.86,1.86,0,0,1-.75-1.21l-2.25-13.92-1.34-12.64v-10.86Z"/><ellipse class="cls-75" cx="2118.91" cy="1055.83" rx="7.43" ry="4.06"/><ellipse class="cls-75" cx="2118.91" cy="1055.83" rx="6.76" ry="3.6"/><path class="cls-75" d="M2132.44,1066.25v10.86l-1.34,12.64-2.27,14a1.89,1.89,0,0,1-.63,1.12c-1.5,1.28-3.14,1.31-4.94,0a1.86,1.86,0,0,1-.75-1.21l-2.25-13.92-1.34-12.64v-10.86Z"/><ellipse class="cls-75" cx="2125.68" cy="1065.8" rx="7.43" ry="4.06"/><ellipse class="cls-75" cx="2125.68" cy="1065.8" rx="6.76" ry="3.6"/><path class="cls-75" d="M2139.21,1076.22v10.86l-1.34,12.64-2.27,14a1.89,1.89,0,0,1-.63,1.11c-1.5,1.28-3.13,1.31-4.94,0a1.86,1.86,0,0,1-.75-1.2l-2.25-13.93-1.33-12.64v-10.86Z"/><ellipse class="cls-75" cx="2132.45" cy="1075.77" rx="7.43" ry="4.06"/><ellipse class="cls-75" cx="2132.45" cy="1075.77" rx="6.76" ry="3.6"/><path class="cls-75" d="M2146,1086.19v10.86l-1.34,12.64-2.27,14a1.89,1.89,0,0,1-.63,1.11c-1.5,1.28-3.13,1.32-4.94,0a1.85,1.85,0,0,1-.74-1.2l-2.26-13.93-1.33-12.64v-10.86Z"/><ellipse class="cls-75" cx="2139.22" cy="1085.74" rx="7.43" ry="4.06"/><ellipse class="cls-75" cx="2139.22" cy="1085.74" rx="6.76" ry="3.6"/><path class="cls-75" d="M2152.75,1096.16V1107l-1.33,12.64-2.28,14a1.84,1.84,0,0,1-.63,1.11c-1.5,1.28-3.13,1.32-4.94,0a1.89,1.89,0,0,1-.74-1.2l-2.26-13.93-1.33-12.64v-10.86Z"/><ellipse class="cls-75" cx="2145.99" cy="1095.71" rx="7.43" ry="4.06"/><ellipse class="cls-75" cx="2145.99" cy="1095.71" rx="6.76" ry="3.6"/><path class="cls-75" d="M2080.82,1020v10.86l-1.34,12.64-2.27,14a1.84,1.84,0,0,1-.63,1.11c-1.5,1.28-3.13,1.31-4.94,0a1.89,1.89,0,0,1-.74-1.21l-2.26-13.92-1.33-12.64V1020Z"/><ellipse class="cls-75" cx="2074.06" cy="1019.55" rx="7.43" ry="4.06"/><ellipse class="cls-75" cx="2074.06" cy="1019.55" rx="6.76" ry="3.6"/><path class="cls-75" d="M2087.59,1030v10.86l-1.33,12.64-2.28,14a1.84,1.84,0,0,1-.63,1.11c-1.5,1.28-3.13,1.31-4.94,0a1.89,1.89,0,0,1-.74-1.2l-2.26-13.93-1.33-12.64V1030Z"/><ellipse class="cls-75" cx="2080.83" cy="1029.52" rx="7.43" ry="4.06"/><ellipse class="cls-75" cx="2080.83" cy="1029.52" rx="6.76" ry="3.6"/><path class="cls-75" d="M2094.36,1039.94v10.86l-1.33,12.64-2.27,14a1.86,1.86,0,0,1-.64,1.11c-1.5,1.28-3.13,1.32-4.93,0a1.86,1.86,0,0,1-.75-1.2l-2.25-13.93-1.34-12.64v-10.86Z"/><ellipse class="cls-75" cx="2087.61" cy="1039.49" rx="7.43" ry="4.06"/><ellipse class="cls-75" cx="2087.61" cy="1039.49" rx="6.76" ry="3.6"/><path class="cls-75" d="M2101.13,1049.91v10.86l-1.33,12.64-2.27,14a1.89,1.89,0,0,1-.63,1.11c-1.51,1.28-3.14,1.32-4.94,0a1.86,1.86,0,0,1-.75-1.2l-2.25-13.93-1.34-12.64v-10.86Z"/><ellipse class="cls-75" cx="2094.38" cy="1049.46" rx="7.43" ry="4.06"/><ellipse class="cls-75" cx="2094.38" cy="1049.46" rx="6.76" ry="3.6"/><path class="cls-75" d="M2107.91,1059.88v10.86l-1.34,12.64-2.27,14a1.87,1.87,0,0,1-.63,1.11c-1.5,1.28-3.14,1.32-4.94,0a1.86,1.86,0,0,1-.75-1.2l-2.25-13.93-1.34-12.64v-10.86Z"/><ellipse class="cls-75" cx="2101.15" cy="1059.43" rx="7.43" ry="4.06"/><ellipse class="cls-75" cx="2101.15" cy="1059.43" rx="6.76" ry="3.6"/><path class="cls-75" d="M2114.68,1069.85v10.86l-1.34,12.64-2.27,14a1.87,1.87,0,0,1-.63,1.11c-1.5,1.28-3.13,1.32-4.94,0a1.9,1.9,0,0,1-.75-1.2l-2.25-13.93-1.33-12.64v-10.86Z"/><ellipse class="cls-75" cx="2107.92" cy="1069.41" rx="7.43" ry="4.06"/><ellipse class="cls-75" cx="2107.92" cy="1069.41" rx="6.76" ry="3.6"/><path class="cls-75" d="M2121.45,1079.83v10.85l-1.34,12.64-2.27,14a1.87,1.87,0,0,1-.63,1.11c-1.5,1.28-3.13,1.32-4.94,0a1.85,1.85,0,0,1-.74-1.2l-2.26-13.93-1.33-12.64v-10.85Z"/><ellipse class="cls-75" cx="2114.69" cy="1079.38" rx="7.43" ry="4.06"/><ellipse class="cls-75" cx="2114.69" cy="1079.38" rx="6.76" ry="3.6"/><path class="cls-75" d="M2128.22,1089.8v10.85l-1.33,12.64-2.28,14a1.82,1.82,0,0,1-.63,1.11c-1.5,1.29-3.13,1.32-4.94,0a1.89,1.89,0,0,1-.74-1.2l-2.26-13.93-1.33-12.64V1089.8Z"/><ellipse class="cls-75" cx="2121.46" cy="1089.35" rx="7.43" ry="4.06"/><ellipse class="cls-75" cx="2121.46" cy="1089.35" rx="6.76" ry="3.6"/><path class="cls-75" d="M2135,1099.77v10.85l-1.33,12.64-2.27,14a1.88,1.88,0,0,1-.64,1.11c-1.5,1.29-3.13,1.32-4.93,0a1.86,1.86,0,0,1-.75-1.2l-2.25-13.93-1.34-12.64v-10.85Z"/><ellipse class="cls-75" cx="2128.24" cy="1099.32" rx="7.43" ry="4.06"/><ellipse class="cls-75" cx="2128.24" cy="1099.32" rx="6.76" ry="3.6"/><path class="cls-75" d="M2063.06,1023.61v10.85l-1.33,12.64-2.28,14a1.82,1.82,0,0,1-.63,1.11c-1.5,1.28-3.13,1.32-4.94,0a1.89,1.89,0,0,1-.74-1.2l-2.26-13.93-1.33-12.64v-10.85Z"/><ellipse class="cls-75" cx="2056.3" cy="1023.16" rx="7.43" ry="4.06"/><ellipse class="cls-75" cx="2056.3" cy="1023.16" rx="6.76" ry="3.6"/><path class="cls-75" d="M2069.83,1033.58v10.85l-1.33,12.64-2.27,14a1.83,1.83,0,0,1-.64,1.11c-1.5,1.28-3.13,1.32-4.93,0a1.86,1.86,0,0,1-.75-1.2l-2.25-13.93-1.34-12.64v-10.85Z"/><ellipse class="cls-75" cx="2063.08" cy="1033.13" rx="7.43" ry="4.06"/><ellipse class="cls-75" cx="2063.08" cy="1033.13" rx="6.76" ry="3.6"/><path class="cls-75" d="M2076.6,1043.55v10.85l-1.33,12.64-2.27,14a1.87,1.87,0,0,1-.63,1.11c-1.51,1.29-3.14,1.32-4.94,0a1.86,1.86,0,0,1-.75-1.2l-2.25-13.93-1.34-12.64v-10.85Z"/><ellipse class="cls-75" cx="2069.85" cy="1043.1" rx="7.43" ry="4.06"/><ellipse class="cls-75" cx="2069.85" cy="1043.1" rx="6.76" ry="3.6"/><path class="cls-75" d="M2083.38,1053.52v10.85L2082,1077l-2.27,14a1.87,1.87,0,0,1-.63,1.11c-1.5,1.29-3.14,1.32-4.94,0a1.86,1.86,0,0,1-.75-1.2L2071.2,1077l-1.34-12.64v-10.85Z"/><ellipse class="cls-75" cx="2076.62" cy="1053.07" rx="7.43" ry="4.06"/><ellipse class="cls-75" cx="2076.62" cy="1053.07" rx="6.76" ry="3.6"/><path class="cls-75" d="M2090.15,1063.49v10.85l-1.34,12.64-2.27,14a1.84,1.84,0,0,1-.63,1.11c-1.5,1.29-3.13,1.32-4.94,0a1.85,1.85,0,0,1-.74-1.2L2078,1087l-1.33-12.64v-10.85Z"/><ellipse class="cls-75" cx="2083.39" cy="1063.04" rx="7.43" ry="4.06"/><ellipse class="cls-75" cx="2083.39" cy="1063.04" rx="6.76" ry="3.6"/><path class="cls-75" d="M2096.92,1073.46v10.85l-1.34,12.65-2.27,14a1.84,1.84,0,0,1-.63,1.12c-1.5,1.28-3.13,1.31-4.94,0a1.85,1.85,0,0,1-.74-1.2l-2.26-13.92-1.33-12.65v-10.85Z"/><ellipse class="cls-75" cx="2090.16" cy="1073.01" rx="7.43" ry="4.06"/><ellipse class="cls-75" cx="2090.16" cy="1073.01" rx="6.76" ry="3.6"/><path class="cls-75" d="M2103.69,1083.43v10.85l-1.33,12.65-2.28,14a1.84,1.84,0,0,1-.63,1.12c-1.5,1.28-3.13,1.31-4.94,0a1.89,1.89,0,0,1-.74-1.2l-2.26-13.92-1.33-12.65v-10.85Z"/><ellipse class="cls-75" cx="2096.93" cy="1082.98" rx="7.43" ry="4.06"/><ellipse class="cls-75" cx="2096.93" cy="1082.98" rx="6.76" ry="3.6"/><path class="cls-75" d="M2110.46,1093.4v10.85l-1.33,12.65-2.27,14a1.85,1.85,0,0,1-.64,1.12c-1.5,1.28-3.13,1.31-4.93,0a1.84,1.84,0,0,1-.75-1.2l-2.25-13.92-1.34-12.65V1093.4Z"/><ellipse class="cls-75" cx="2103.71" cy="1092.95" rx="7.43" ry="4.06"/><ellipse class="cls-75" cx="2103.71" cy="1092.95" rx="6.76" ry="3.6"/><path class="cls-75" d="M2117.23,1103.37v10.86l-1.33,12.64-2.27,14a1.89,1.89,0,0,1-.63,1.12c-1.51,1.28-3.14,1.31-4.94,0a1.82,1.82,0,0,1-.75-1.2l-2.25-13.92-1.34-12.64v-10.86Z"/><ellipse class="cls-75" cx="2110.48" cy="1102.92" rx="7.43" ry="4.06"/><ellipse class="cls-75" cx="2110.48" cy="1102.92" rx="6.76" ry="3.6"/><path class="cls-75" d="M2045.3,1027.21v10.85l-1.33,12.65-2.27,14a1.85,1.85,0,0,1-.64,1.12c-1.5,1.28-3.13,1.31-4.93,0a1.86,1.86,0,0,1-.75-1.2l-2.25-13.92-1.34-12.65v-10.85Z"/><path class="cls-75" d="M2052.07,1037.18V1048l-1.33,12.65-2.27,14a1.89,1.89,0,0,1-.63,1.12c-1.51,1.28-3.14,1.31-4.94,0a1.84,1.84,0,0,1-.75-1.2l-2.25-13.92-1.34-12.65v-10.85Z"/><ellipse class="cls-75" cx="2038.55" cy="1026.76" rx="7.43" ry="4.06"/><ellipse class="cls-75" cx="2038.55" cy="1026.76" rx="6.76" ry="3.6"/><ellipse class="cls-75" cx="2045.32" cy="1036.73" rx="7.43" ry="4.06"/><ellipse class="cls-75" cx="2045.32" cy="1036.73" rx="6.76" ry="3.6"/><path class="cls-75" d="M2058.85,1047.15V1058l-1.34,12.64-2.27,14a1.89,1.89,0,0,1-.63,1.12c-1.5,1.28-3.14,1.31-4.94,0a1.82,1.82,0,0,1-.75-1.2l-2.25-13.92-1.34-12.64v-10.86Z"/><ellipse class="cls-75" cx="2052.09" cy="1046.7" rx="7.43" ry="4.06"/><ellipse class="cls-75" cx="2052.09" cy="1046.7" rx="6.76" ry="3.6"/><path class="cls-75" d="M2065.62,1057.12V1068l-1.34,12.64-2.27,14a1.89,1.89,0,0,1-.63,1.12c-1.5,1.28-3.13,1.31-4.94,0a1.8,1.8,0,0,1-.74-1.2l-2.26-13.92-1.33-12.64v-10.86Z"/><ellipse class="cls-75" cx="2058.86" cy="1056.67" rx="7.43" ry="4.06"/><ellipse class="cls-75" cx="2058.86" cy="1056.67" rx="6.76" ry="3.6"/><path class="cls-75" d="M2072.39,1067.09V1078l-1.34,12.64-2.27,14a1.84,1.84,0,0,1-.63,1.12c-1.5,1.28-3.13,1.31-4.94,0a1.89,1.89,0,0,1-.74-1.21l-2.26-13.92-1.33-12.64v-10.86Z"/><ellipse class="cls-75" cx="2065.63" cy="1066.64" rx="7.43" ry="4.06"/><ellipse class="cls-75" cx="2065.63" cy="1066.64" rx="6.76" ry="3.6"/><path class="cls-75" d="M2079.16,1077.06v10.86l-1.33,12.64-2.28,14a1.84,1.84,0,0,1-.63,1.12c-1.5,1.28-3.13,1.31-4.94,0a1.89,1.89,0,0,1-.74-1.21l-2.26-13.92-1.33-12.64v-10.86Z"/><path class="cls-75" d="M2085.93,1087v10.86l-1.33,12.64-2.27,14a1.86,1.86,0,0,1-.64,1.11c-1.5,1.28-3.13,1.31-4.93,0a1.86,1.86,0,0,1-.75-1.21l-2.25-13.92-1.34-12.64V1087Z"/><path class="cls-75" d="M2092.7,1097v10.86l-1.33,12.64-2.27,14a1.89,1.89,0,0,1-.63,1.11c-1.51,1.28-3.14,1.31-4.94,0a1.86,1.86,0,0,1-.75-1.2l-2.25-13.93-1.34-12.64V1097Z"/><ellipse class="cls-75" cx="2072.4" cy="1076.61" rx="7.43" ry="4.06"/><ellipse class="cls-75" cx="2072.4" cy="1076.61" rx="6.76" ry="3.6"/><ellipse class="cls-75" cx="2079.18" cy="1086.58" rx="7.43" ry="4.06"/><ellipse class="cls-75" cx="2079.18" cy="1086.58" rx="6.76" ry="3.6"/><ellipse class="cls-75" cx="2085.95" cy="1096.55" rx="7.43" ry="4.06"/><ellipse class="cls-75" cx="2085.95" cy="1096.55" rx="6.76" ry="3.6"/><path class="cls-75" d="M2099.48,1107v10.86l-1.34,12.64-2.27,14a1.89,1.89,0,0,1-.63,1.11c-1.5,1.28-3.14,1.32-4.94,0a1.86,1.86,0,0,1-.75-1.2l-2.25-13.93-1.34-12.64V1107Z"/><ellipse class="cls-75" cx="2092.72" cy="1106.52" rx="7.43" ry="4.06"/><ellipse class="cls-75" cx="2092.72" cy="1106.52" rx="6.76" ry="3.6"/><polygon class="cls-76" points="2317.13 1073.39 2077.84 1121.23 2009.78 1020.41 2249.06 972.57 2317.13 1073.39"/><ellipse class="cls-77" cx="2038.55" cy="1026.76" rx="7.43" ry="4.06"/><ellipse class="cls-78" cx="2038.55" cy="1026.76" rx="6.76" ry="3.6"/><ellipse class="cls-77" cx="2045.32" cy="1036.73" rx="7.43" ry="4.06"/><ellipse class="cls-78" cx="2045.32" cy="1036.73" rx="6.76" ry="3.6"/><ellipse class="cls-77" cx="2052.09" cy="1046.7" rx="7.43" ry="4.06"/><ellipse class="cls-78" cx="2052.09" cy="1046.7" rx="6.76" ry="3.6"/><ellipse class="cls-77" cx="2058.86" cy="1056.67" rx="7.43" ry="4.06"/><ellipse class="cls-78" cx="2058.86" cy="1056.67" rx="6.76" ry="3.6"/><ellipse class="cls-77" cx="2065.63" cy="1066.64" rx="7.43" ry="4.06"/><ellipse class="cls-78" cx="2065.63" cy="1066.64" rx="6.76" ry="3.6"/><ellipse class="cls-77" cx="2072.4" cy="1076.61" rx="7.43" ry="4.06"/><ellipse class="cls-78" cx="2072.4" cy="1076.61" rx="6.76" ry="3.6"/><ellipse class="cls-77" cx="2079.18" cy="1086.58" rx="7.43" ry="4.06"/><ellipse class="cls-78" cx="2079.18" cy="1086.58" rx="6.76" ry="3.6"/><ellipse class="cls-77" cx="2085.95" cy="1096.55" rx="7.43" ry="4.06"/><ellipse class="cls-78" cx="2085.95" cy="1096.55" rx="6.76" ry="3.6"/><ellipse class="cls-77" cx="2092.72" cy="1106.52" rx="7.43" ry="4.06"/><ellipse class="cls-78" cx="2092.72" cy="1106.52" rx="6.76" ry="3.6"/><ellipse class="cls-77" cx="2056.3" cy="1023.16" rx="7.43" ry="4.06"/><ellipse class="cls-78" cx="2056.3" cy="1023.16" rx="6.76" ry="3.6"/><ellipse class="cls-77" cx="2063.08" cy="1033.13" rx="7.43" ry="4.06"/><ellipse class="cls-78" cx="2063.08" cy="1033.13" rx="6.76" ry="3.6"/><ellipse class="cls-77" cx="2069.85" cy="1043.1" rx="7.43" ry="4.06"/><ellipse class="cls-78" cx="2069.85" cy="1043.1" rx="6.76" ry="3.6"/><ellipse class="cls-77" cx="2076.62" cy="1053.07" rx="7.43" ry="4.06"/><ellipse class="cls-78" cx="2076.62" cy="1053.07" rx="6.76" ry="3.6"/><ellipse class="cls-77" cx="2083.39" cy="1063.04" rx="7.43" ry="4.06"/><ellipse class="cls-78" cx="2083.39" cy="1063.04" rx="6.76" ry="3.6"/><ellipse class="cls-77" cx="2090.16" cy="1073.01" rx="7.43" ry="4.06"/><ellipse class="cls-78" cx="2090.16" cy="1073.01" rx="6.76" ry="3.6"/><ellipse class="cls-77" cx="2096.93" cy="1082.98" rx="7.43" ry="4.06"/><ellipse class="cls-78" cx="2096.93" cy="1082.98" rx="6.76" ry="3.6"/><ellipse class="cls-77" cx="2103.71" cy="1092.95" rx="7.43" ry="4.06"/><ellipse class="cls-78" cx="2103.71" cy="1092.95" rx="6.76" ry="3.6"/><ellipse class="cls-77" cx="2110.48" cy="1102.92" rx="7.43" ry="4.06"/><ellipse class="cls-78" cx="2110.48" cy="1102.92" rx="6.76" ry="3.6"/><ellipse class="cls-77" cx="2074.06" cy="1019.55" rx="7.43" ry="4.06"/><ellipse class="cls-78" cx="2074.06" cy="1019.55" rx="6.76" ry="3.6"/><ellipse class="cls-77" cx="2080.83" cy="1029.52" rx="7.43" ry="4.06"/><ellipse class="cls-78" cx="2080.83" cy="1029.52" rx="6.76" ry="3.6"/><ellipse class="cls-77" cx="2087.61" cy="1039.49" rx="7.43" ry="4.06"/><ellipse class="cls-78" cx="2087.61" cy="1039.49" rx="6.76" ry="3.6"/><ellipse class="cls-77" cx="2094.38" cy="1049.46" rx="7.43" ry="4.06"/><ellipse class="cls-78" cx="2094.38" cy="1049.46" rx="6.76" ry="3.6"/><ellipse class="cls-77" cx="2101.15" cy="1059.43" rx="7.43" ry="4.06"/><ellipse class="cls-78" cx="2101.15" cy="1059.43" rx="6.76" ry="3.6"/><ellipse class="cls-77" cx="2107.92" cy="1069.41" rx="7.43" ry="4.06"/><ellipse class="cls-78" cx="2107.92" cy="1069.41" rx="6.76" ry="3.6"/><ellipse class="cls-77" cx="2114.69" cy="1079.38" rx="7.43" ry="4.06"/><ellipse class="cls-78" cx="2114.69" cy="1079.38" rx="6.76" ry="3.6"/><ellipse class="cls-77" cx="2121.46" cy="1089.35" rx="7.43" ry="4.06"/><ellipse class="cls-78" cx="2121.46" cy="1089.35" rx="6.76" ry="3.6"/><ellipse class="cls-77" cx="2128.24" cy="1099.32" rx="7.43" ry="4.06"/><ellipse class="cls-78" cx="2128.24" cy="1099.32" rx="6.76" ry="3.6"/><ellipse class="cls-77" cx="2091.82" cy="1015.95" rx="7.43" ry="4.06"/><ellipse class="cls-78" cx="2091.82" cy="1015.95" rx="6.76" ry="3.6"/><ellipse class="cls-77" cx="2098.59" cy="1025.92" rx="7.43" ry="4.06"/><ellipse class="cls-78" cx="2098.59" cy="1025.92" rx="6.76" ry="3.6"/><ellipse class="cls-77" cx="2105.36" cy="1035.89" rx="7.43" ry="4.06"/><ellipse class="cls-78" cx="2105.36" cy="1035.89" rx="6.76" ry="3.6"/><ellipse class="cls-77" cx="2112.14" cy="1045.86" rx="7.43" ry="4.06"/><ellipse class="cls-78" cx="2112.14" cy="1045.86" rx="6.76" ry="3.6"/><ellipse class="cls-77" cx="2118.91" cy="1055.83" rx="7.43" ry="4.06"/><ellipse class="cls-78" cx="2118.91" cy="1055.83" rx="6.76" ry="3.6"/><ellipse class="cls-77" cx="2125.68" cy="1065.8" rx="7.43" ry="4.06"/><ellipse class="cls-78" cx="2125.68" cy="1065.8" rx="6.76" ry="3.6"/><ellipse class="cls-77" cx="2132.45" cy="1075.77" rx="7.43" ry="4.06"/><ellipse class="cls-78" cx="2132.45" cy="1075.77" rx="6.76" ry="3.6"/><ellipse class="cls-77" cx="2139.22" cy="1085.74" rx="7.43" ry="4.06"/><ellipse class="cls-78" cx="2139.22" cy="1085.74" rx="6.76" ry="3.6"/><ellipse class="cls-77" cx="2145.99" cy="1095.71" rx="7.43" ry="4.06"/><ellipse class="cls-78" cx="2145.99" cy="1095.71" rx="6.76" ry="3.6"/><ellipse class="cls-77" cx="2109.58" cy="1012.35" rx="7.43" ry="4.06"/><ellipse class="cls-78" cx="2109.58" cy="1012.35" rx="6.76" ry="3.6"/><ellipse class="cls-77" cx="2116.35" cy="1022.32" rx="7.43" ry="4.06"/><ellipse class="cls-78" cx="2116.35" cy="1022.32" rx="6.76" ry="3.6"/><ellipse class="cls-77" cx="2123.12" cy="1032.29" rx="7.43" ry="4.06"/><ellipse class="cls-78" cx="2123.12" cy="1032.29" rx="6.76" ry="3.6"/><ellipse class="cls-77" cx="2129.89" cy="1042.26" rx="7.43" ry="4.06"/><ellipse class="cls-78" cx="2129.89" cy="1042.26" rx="6.76" ry="3.6"/><ellipse class="cls-77" cx="2136.67" cy="1052.23" rx="7.43" ry="4.06"/><ellipse class="cls-78" cx="2136.67" cy="1052.23" rx="6.76" ry="3.6"/><ellipse class="cls-77" cx="2143.44" cy="1062.2" rx="7.43" ry="4.06"/><ellipse class="cls-78" cx="2143.44" cy="1062.2" rx="6.76" ry="3.6"/><ellipse class="cls-77" cx="2150.21" cy="1072.17" rx="7.43" ry="4.06"/><ellipse class="cls-78" cx="2150.21" cy="1072.17" rx="6.76" ry="3.6"/><ellipse class="cls-77" cx="2156.98" cy="1082.14" rx="7.43" ry="4.06"/><ellipse class="cls-78" cx="2156.98" cy="1082.14" rx="6.76" ry="3.6"/><ellipse class="cls-77" cx="2163.75" cy="1092.11" rx="7.43" ry="4.06"/><ellipse class="cls-78" cx="2163.75" cy="1092.11" rx="6.76" ry="3.6"/><ellipse class="cls-77" cx="2127.34" cy="1008.74" rx="7.43" ry="4.06"/><ellipse class="cls-78" cx="2127.34" cy="1008.74" rx="6.76" ry="3.6"/><ellipse class="cls-77" cx="2134.11" cy="1018.71" rx="7.43" ry="4.06"/><ellipse class="cls-78" cx="2134.11" cy="1018.71" rx="6.76" ry="3.6"/><ellipse class="cls-77" cx="2140.88" cy="1028.68" rx="7.43" ry="4.06"/><ellipse class="cls-78" cx="2140.88" cy="1028.68" rx="6.76" ry="3.6"/><ellipse class="cls-77" cx="2147.65" cy="1038.65" rx="7.43" ry="4.06"/><ellipse class="cls-78" cx="2147.65" cy="1038.65" rx="6.76" ry="3.6"/><ellipse class="cls-77" cx="2154.42" cy="1048.62" rx="7.43" ry="4.06"/><ellipse class="cls-78" cx="2154.42" cy="1048.62" rx="6.76" ry="3.6"/><ellipse class="cls-77" cx="2161.2" cy="1058.6" rx="7.43" ry="4.06"/><ellipse class="cls-78" cx="2161.2" cy="1058.6" rx="6.76" ry="3.6"/><ellipse class="cls-77" cx="2167.97" cy="1068.57" rx="7.43" ry="4.06"/><ellipse class="cls-78" cx="2167.97" cy="1068.57" rx="6.76" ry="3.6"/><ellipse class="cls-77" cx="2174.74" cy="1078.54" rx="7.43" ry="4.06"/><ellipse class="cls-78" cx="2174.74" cy="1078.54" rx="6.76" ry="3.6"/><ellipse class="cls-77" cx="2181.51" cy="1088.51" rx="7.43" ry="4.06"/><ellipse class="cls-78" cx="2181.51" cy="1088.51" rx="6.76" ry="3.6"/><ellipse class="cls-77" cx="2145.1" cy="1005.14" rx="7.43" ry="4.06"/><ellipse class="cls-78" cx="2145.1" cy="1005.14" rx="6.76" ry="3.6"/><ellipse class="cls-77" cx="2151.87" cy="1015.11" rx="7.43" ry="4.06"/><ellipse class="cls-78" cx="2151.87" cy="1015.11" rx="6.76" ry="3.6"/><ellipse class="cls-77" cx="2158.64" cy="1025.08" rx="7.43" ry="4.06"/><ellipse class="cls-78" cx="2158.64" cy="1025.08" rx="6.76" ry="3.6"/><ellipse class="cls-77" cx="2165.41" cy="1035.05" rx="7.43" ry="4.06"/><ellipse class="cls-78" cx="2165.41" cy="1035.05" rx="6.76" ry="3.6"/><ellipse class="cls-77" cx="2172.18" cy="1045.02" rx="7.43" ry="4.06"/><ellipse class="cls-78" cx="2172.18" cy="1045.02" rx="6.76" ry="3.6"/><ellipse class="cls-77" cx="2178.95" cy="1054.99" rx="7.43" ry="4.06"/><ellipse class="cls-78" cx="2178.95" cy="1054.99" rx="6.76" ry="3.6"/><ellipse class="cls-77" cx="2185.73" cy="1064.96" rx="7.43" ry="4.06"/><ellipse class="cls-78" cx="2185.73" cy="1064.96" rx="6.76" ry="3.6"/><ellipse class="cls-77" cx="2192.5" cy="1074.93" rx="7.43" ry="4.06"/><ellipse class="cls-78" cx="2192.5" cy="1074.93" rx="6.76" ry="3.6"/><ellipse class="cls-77" cx="2199.27" cy="1084.9" rx="7.43" ry="4.06"/><ellipse class="cls-78" cx="2199.27" cy="1084.9" rx="6.76" ry="3.6"/><ellipse class="cls-77" cx="2162.85" cy="1001.54" rx="7.43" ry="4.06"/><ellipse class="cls-78" cx="2162.85" cy="1001.54" rx="6.76" ry="3.6"/><ellipse class="cls-77" cx="2169.63" cy="1011.51" rx="7.43" ry="4.06"/><ellipse class="cls-78" cx="2169.63" cy="1011.51" rx="6.76" ry="3.6"/><ellipse class="cls-77" cx="2176.4" cy="1021.48" rx="7.43" ry="4.06"/><ellipse class="cls-78" cx="2176.4" cy="1021.48" rx="6.76" ry="3.6"/><ellipse class="cls-77" cx="2183.17" cy="1031.45" rx="7.43" ry="4.06"/><ellipse class="cls-78" cx="2183.17" cy="1031.45" rx="6.76" ry="3.6"/><ellipse class="cls-77" cx="2189.94" cy="1041.42" rx="7.43" ry="4.06"/><ellipse class="cls-78" cx="2189.94" cy="1041.42" rx="6.76" ry="3.6"/><ellipse class="cls-77" cx="2196.71" cy="1051.39" rx="7.43" ry="4.06"/><ellipse class="cls-78" cx="2196.71" cy="1051.39" rx="6.76" ry="3.6"/><ellipse class="cls-77" cx="2203.48" cy="1061.36" rx="7.43" ry="4.06"/><ellipse class="cls-78" cx="2203.48" cy="1061.36" rx="6.76" ry="3.6"/><ellipse class="cls-77" cx="2210.26" cy="1071.33" rx="7.43" ry="4.06"/><ellipse class="cls-78" cx="2210.26" cy="1071.33" rx="6.76" ry="3.6"/><ellipse class="cls-77" cx="2217.03" cy="1081.3" rx="7.43" ry="4.06"/><ellipse class="cls-78" cx="2217.03" cy="1081.3" rx="6.76" ry="3.6"/><ellipse class="cls-77" cx="2180.61" cy="997.93" rx="7.43" ry="4.06"/><ellipse class="cls-78" cx="2180.61" cy="997.93" rx="6.76" ry="3.6"/><ellipse class="cls-77" cx="2187.38" cy="1007.9" rx="7.43" ry="4.06"/><ellipse class="cls-78" cx="2187.38" cy="1007.9" rx="6.76" ry="3.6"/><ellipse class="cls-77" cx="2194.16" cy="1017.87" rx="7.43" ry="4.06"/><ellipse class="cls-78" cx="2194.16" cy="1017.87" rx="6.76" ry="3.6"/><ellipse class="cls-77" cx="2200.93" cy="1027.84" rx="7.43" ry="4.06"/><ellipse class="cls-78" cx="2200.93" cy="1027.84" rx="6.76" ry="3.6"/><ellipse class="cls-77" cx="2207.7" cy="1037.82" rx="7.43" ry="4.06"/><ellipse class="cls-78" cx="2207.7" cy="1037.82" rx="6.76" ry="3.6"/><ellipse class="cls-77" cx="2214.47" cy="1047.79" rx="7.43" ry="4.06"/><ellipse class="cls-78" cx="2214.47" cy="1047.79" rx="6.76" ry="3.6"/><ellipse class="cls-77" cx="2221.24" cy="1057.76" rx="7.43" ry="4.06"/><ellipse class="cls-78" cx="2221.24" cy="1057.76" rx="6.76" ry="3.6"/><ellipse class="cls-77" cx="2228.01" cy="1067.73" rx="7.43" ry="4.06"/><ellipse class="cls-78" cx="2228.01" cy="1067.73" rx="6.76" ry="3.6"/><ellipse class="cls-77" cx="2234.78" cy="1077.7" rx="7.43" ry="4.06"/><ellipse class="cls-78" cx="2234.78" cy="1077.7" rx="6.76" ry="3.6"/><ellipse class="cls-77" cx="2198.37" cy="994.33" rx="7.43" ry="4.06"/><ellipse class="cls-78" cx="2198.37" cy="994.33" rx="6.76" ry="3.6"/><ellipse class="cls-77" cx="2205.14" cy="1004.3" rx="7.43" ry="4.06"/><ellipse class="cls-78" cx="2205.14" cy="1004.3" rx="6.76" ry="3.6"/><ellipse class="cls-77" cx="2211.91" cy="1014.27" rx="7.43" ry="4.06"/><ellipse class="cls-78" cx="2211.91" cy="1014.27" rx="6.76" ry="3.6"/><ellipse class="cls-77" cx="2218.69" cy="1024.24" rx="7.43" ry="4.06"/><ellipse class="cls-78" cx="2218.69" cy="1024.24" rx="6.76" ry="3.6"/><ellipse class="cls-77" cx="2225.46" cy="1034.21" rx="7.43" ry="4.06"/><ellipse class="cls-78" cx="2225.46" cy="1034.21" rx="6.76" ry="3.6"/><ellipse class="cls-77" cx="2232.23" cy="1044.18" rx="7.43" ry="4.06"/><ellipse class="cls-78" cx="2232.23" cy="1044.18" rx="6.76" ry="3.6"/><ellipse class="cls-77" cx="2239" cy="1054.15" rx="7.43" ry="4.06"/><ellipse class="cls-78" cx="2239" cy="1054.15" rx="6.76" ry="3.6"/><ellipse class="cls-77" cx="2245.77" cy="1064.12" rx="7.43" ry="4.06"/><ellipse class="cls-78" cx="2245.77" cy="1064.12" rx="6.76" ry="3.6"/><ellipse class="cls-77" cx="2252.54" cy="1074.09" rx="7.43" ry="4.06"/><ellipse class="cls-78" cx="2252.54" cy="1074.09" rx="6.76" ry="3.6"/><ellipse class="cls-77" cx="2216.13" cy="990.73" rx="7.43" ry="4.06"/><ellipse class="cls-78" cx="2216.13" cy="990.73" rx="6.76" ry="3.6"/><ellipse class="cls-77" cx="2222.9" cy="1000.7" rx="7.43" ry="4.06"/><ellipse class="cls-78" cx="2222.9" cy="1000.7" rx="6.76" ry="3.6"/><ellipse class="cls-77" cx="2229.67" cy="1010.67" rx="7.43" ry="4.06"/><ellipse class="cls-78" cx="2229.67" cy="1010.67" rx="6.76" ry="3.6"/><ellipse class="cls-77" cx="2236.44" cy="1020.64" rx="7.43" ry="4.06"/><ellipse class="cls-78" cx="2236.44" cy="1020.64" rx="6.76" ry="3.6"/><ellipse class="cls-77" cx="2243.21" cy="1030.61" rx="7.43" ry="4.06"/><ellipse class="cls-78" cx="2243.21" cy="1030.61" rx="6.76" ry="3.6"/><ellipse class="cls-77" cx="2249.99" cy="1040.58" rx="7.43" ry="4.06"/><ellipse class="cls-78" cx="2249.99" cy="1040.58" rx="6.76" ry="3.6"/><ellipse class="cls-77" cx="2256.76" cy="1050.55" rx="7.43" ry="4.06"/><ellipse class="cls-78" cx="2256.76" cy="1050.55" rx="6.76" ry="3.6"/><ellipse class="cls-77" cx="2263.53" cy="1060.52" rx="7.43" ry="4.06"/><ellipse class="cls-78" cx="2263.53" cy="1060.52" rx="6.76" ry="3.6"/><ellipse class="cls-77" cx="2270.3" cy="1070.49" rx="7.43" ry="4.06"/><ellipse class="cls-78" cx="2270.3" cy="1070.49" rx="6.76" ry="3.6"/><ellipse class="cls-77" cx="2233.89" cy="987.12" rx="7.43" ry="4.06"/><ellipse class="cls-78" cx="2233.89" cy="987.12" rx="6.76" ry="3.6"/><ellipse class="cls-77" cx="2240.66" cy="997.09" rx="7.43" ry="4.06"/><ellipse class="cls-78" cx="2240.66" cy="997.09" rx="6.76" ry="3.6"/><ellipse class="cls-77" cx="2247.43" cy="1007.06" rx="7.43" ry="4.06"/><ellipse class="cls-78" cx="2247.43" cy="1007.06" rx="6.76" ry="3.6"/><ellipse class="cls-77" cx="2254.2" cy="1017.03" rx="7.43" ry="4.06"/><ellipse class="cls-78" cx="2254.2" cy="1017.03" rx="6.76" ry="3.6"/><ellipse class="cls-77" cx="2260.97" cy="1027.01" rx="7.43" ry="4.06"/><ellipse class="cls-78" cx="2260.97" cy="1027.01" rx="6.76" ry="3.6"/><ellipse class="cls-77" cx="2267.74" cy="1036.98" rx="7.43" ry="4.06"/><ellipse class="cls-78" cx="2267.74" cy="1036.98" rx="6.76" ry="3.6"/><ellipse class="cls-77" cx="2274.52" cy="1046.95" rx="7.43" ry="4.06"/><ellipse class="cls-78" cx="2274.52" cy="1046.95" rx="6.76" ry="3.6"/><ellipse class="cls-77" cx="2281.29" cy="1056.92" rx="7.43" ry="4.06"/><ellipse class="cls-78" cx="2281.29" cy="1056.92" rx="6.76" ry="3.6"/><ellipse class="cls-77" cx="2288.06" cy="1066.89" rx="7.43" ry="4.06"/><ellipse class="cls-78" cx="2288.06" cy="1066.89" rx="6.76" ry="3.6"/><line class="cls-79" x1="2081.51" y1="968.22" x2="2081.51" y2="1020.58"/><polygon class="cls-80" points="2081.51 1030.44 2075.83 1016.54 2081.51 1019.84 2087.19 1016.54 2081.51 1030.44"/><line class="cls-79" x1="2101.15" y1="990.27" x2="2101.15" y2="1056.23"/><polygon class="cls-80" points="2101.15 1066.09 2095.47 1052.19 2101.15 1055.49 2106.83 1052.19 2101.15 1066.09"/><line class="cls-79" x1="2130.57" y1="968.22" x2="2130.57" y2="1025.09"/><polygon class="cls-80" points="2130.57 1034.95 2124.89 1021.05 2130.57 1024.35 2136.25 1021.05 2130.57 1034.95"/><line class="cls-79" x1="2151.88" y1="996.64" x2="2151.88" y2="1066.08"/><polygon class="cls-80" points="2151.88 1075.95 2146.2 1062.05 2151.88 1065.35 2157.56 1062.05 2151.88 1075.95"/><line class="cls-79" x1="2178.31" y1="968.22" x2="2178.31" y2="1027.67"/><polygon class="cls-80" points="2178.31 1037.53 2172.63 1023.63 2178.31 1026.93 2183.99 1023.63 2178.31 1037.53"/><line class="cls-79" x1="2205.13" y1="1005.63" x2="2205.17" y2="1066.6"/><polygon class="cls-80" points="2205.17 1076.46 2199.48 1062.56 2205.17 1065.86 2210.84 1062.56 2205.17 1076.46"/><line class="cls-79" x1="2233.89" y1="972.57" x2="2233.89" y2="1029.48"/><polygon class="cls-80" points="2233.89 1039.34 2228.21 1025.44 2233.89 1028.74 2239.57 1025.44 2233.89 1039.34"/></g><line class="cls-81" x1="1755.38" y1="530.12" x2="1755.38" y2="567.55"/><polygon class="cls-40" points="1738.31 563.41 1755.38 588.05 1772.51 563.41 1738.31 563.41"/><line class="cls-81" x1="1755.38" y1="850.35" x2="1755.38" y2="887.78"/><polygon class="cls-40" points="1738.31 883.64 1755.38 908.28 1772.51 883.64 1738.31 883.64"/><line class="cls-81" x1="1935.78" y1="1035.38" x2="1973.21" y2="1035.38"/><polygon class="cls-40" points="1969.07 1052.45 1993.71 1035.38 1969.07 1018.25 1969.07 1052.45"/></g><g id="图层_10" data-name="图层 10"><line class="cls-82" x1="1443.81" y1="641.23" x2="1547.6" y2="641.23"/><polygon class="cls-40" points="1542.68 658.29 1571.93 641.23 1542.68 624.1 1542.68 658.29"/><text class="cls-41" transform="translate(1764.89 1246.32)">Experimental<tspan class="cls-83" x="209.97" y="0"> </tspan><tspan class="cls-84" x="218.32" y="0">V</tspan><tspan x="241.01" y="0">alidation</tspan></text></g></svg>